<svg xmlns="http://www.w3.org/2000/svg" xmlns:xlink="http://www.w3.org/1999/xlink" width="500" zoomAndPan="magnify" viewBox="0 0 375 374.999991" height="500" preserveAspectRatio="xMidYMid meet" version="1.0"><defs><g/></defs><rect x="-37.5" width="450" fill="#ffffff" y="-37.499999" height="449.999989" fill-opacity="1"/><rect x="-37.5" width="450" fill="#fffefd" y="-37.499999" height="449.999989" fill-opacity="1"/><path fill="#000000" d="M 335.144531 102.265625 C 325.253906 117.980469 325.328125 135.15625 315.054688 159.6875 C 307.542969 158.921875 300.027344 158.613281 292.515625 158.921875 C 293.667969 153.015625 294.203125 147.039062 294.125 141.058594 C 293.894531 129.253906 292.667969 117.445312 290.445312 105.871094 C 305.164062 103.03125 320.117188 101.808594 335.144531 102.265625 Z M 287.070312 143.28125 C 287.070312 148.648438 286.613281 154.015625 285.617188 159.304688 C 265.453125 160.914062 246.054688 167.8125 229.339844 179.238281 C 243.679688 163.675781 251.652344 143.28125 251.730469 122.121094 C 251.730469 121.433594 251.730469 120.820312 251.652344 120.128906 C 261.390625 114.457031 271.816406 110.238281 282.703125 107.554688 C 285.15625 119.363281 286.613281 131.324219 287.070312 143.28125 Z M 220.296875 188.972656 C 238.847656 174.636719 261.160156 166.203125 284.542969 164.519531 C 277.875 189.433594 259.550781 199.398438 245.058594 199.398438 C 235.707031 199.398438 226.8125 195.640625 220.296875 188.972656 Z M 246.667969 128.5625 C 246.667969 154.78125 231.949219 174.023438 218.992188 186.445312 C 217.152344 182.152344 216.230469 177.628906 216.308594 172.949219 C 216.308594 157.160156 225.507812 137.914062 246.515625 123.503906 C 246.667969 125.1875 246.667969 126.875 246.667969 128.5625 Z M 213.472656 172.183594 C 213.472656 176.015625 214.085938 179.851562 215.386719 183.453125 C 211.707031 176.402344 209.792969 168.503906 209.792969 160.53125 C 209.792969 134.542969 221.519531 110.238281 237.238281 90.535156 C 241.609375 99.199219 244.523438 108.476562 245.980469 117.980469 C 225.816406 131.554688 213.472656 150.488281 213.472656 172.183594 Z M 225.203125 195.566406 C 231.105469 199.628906 238.160156 201.851562 245.289062 202.007812 C 267.90625 202.007812 284.847656 188.054688 291.289062 164.136719 C 298.421875 163.90625 305.625 164.210938 312.753906 164.976562 C 312.753906 165.054688 312.679688 165.054688 312.679688 165.054688 C 300.257812 191.964844 277.027344 206.222656 254.183594 206.222656 C 243.527344 206.683594 233.097656 202.847656 225.203125 195.566406 Z M 283.085938 51.515625 C 277.644531 68.074219 279.25 85.246094 281.859375 101.882812 C 271.203125 104.796875 261.003906 109.015625 251.421875 114.535156 C 250.347656 103.953125 247.433594 93.605469 242.835938 83.945312 C 254.335938 70.988281 267.980469 59.949219 283.085938 51.515625 Z M 209.332031 30.511719 C 214.46875 52.972656 225.96875 68.917969 234.859375 85.785156 C 222.210938 101.425781 213.394531 119.824219 209.332031 139.527344 L 209.792969 139.527344 L 209.792969 30.511719 Z M 226.8125 199.398438 C 235.167969 205.839844 245.363281 209.289062 255.867188 209.289062 C 280.863281 209.289062 305.472656 194.953125 320.039062 165.898438 C 332.230469 167.8125 344.265625 170.957031 355.765625 175.328125 C 329.777344 182.226562 301.488281 213.65625 265.910156 213.65625 C 249.582031 213.65625 236.394531 208.214844 227.730469 200.011719 Z M 206.265625 164.441406 C 210.863281 192.039062 232.40625 217.722656 269.59375 217.722656 C 312.527344 217.722656 349.097656 177.78125 373.785156 176.707031 C 375.621094 176.628906 375.621094 175.785156 374.167969 175.25 C 357.605469 168.351562 340.355469 163.445312 322.648438 160.683594 C 333.378906 136.382812 333.609375 115.222656 343.960938 98.664062 C 344.878906 97.207031 344.726562 96.746094 343.039062 96.59375 C 325.175781 95.058594 307.160156 96.210938 289.601562 100.042969 C 286.613281 81.261719 284.386719 62.863281 291.597656 41.78125 C 292.132812 40.167969 291.824219 39.402344 290.140625 40.167969 C 271.277344 49.90625 254.488281 63.167969 240.535156 79.113281 C 228.804688 55.65625 211.707031 34.035156 207.03125 0.535156 C 206.726562 -1.535156 205.652344 -1.382812 205.652344 0.535156 L 205.652344 153.324219 C 205.652344 166.742188 196.296875 172.949219 187.402344 172.949219 C 178.511719 172.949219 169.15625 166.664062 169.15625 153.324219 L 169.15625 0.613281 C 169.15625 -1.304688 168.085938 -1.457031 167.777344 0.613281 C 163.101562 34.035156 146.003906 55.734375 134.351562 79.113281 C 120.398438 63.09375 103.53125 49.90625 84.746094 40.167969 C 83.136719 39.402344 82.753906 40.09375 83.289062 41.78125 C 90.574219 62.9375 88.347656 81.261719 85.28125 100.042969 C 67.726562 96.210938 49.710938 95.058594 31.847656 96.59375 C 30.234375 96.746094 30.082031 97.207031 30.925781 98.664062 C 41.273438 115.222656 41.582031 136.382812 52.238281 160.683594 C 34.53125 163.445312 17.203125 168.351562 0.71875 175.25 C -0.738281 175.863281 -0.738281 176.707031 1.101562 176.707031 C 25.710938 177.703125 62.359375 217.722656 105.292969 217.722656 C 142.554688 217.722656 164.019531 192.039062 168.621094 164.441406 L 167.855469 164.59375 C 170.84375 171.339844 177.285156 175.863281 184.644531 176.402344 L 184.71875 175.941406 C 174.601562 177.015625 166.472656 184.679688 166.472656 194.492188 C 166.472656 210.132812 181.808594 215.191406 186.332031 227 C 186.636719 227.765625 186.792969 228.605469 187.480469 228.605469 C 188.171875 228.605469 188.246094 227.84375 188.632812 227 C 193.230469 215.191406 208.488281 210.132812 208.488281 194.492188 C 208.027344 184.527344 200.132812 176.476562 190.242188 175.941406 L 190.316406 176.402344 C 197.675781 175.863281 204.117188 171.339844 207.109375 164.59375 Z M 84.441406 105.945312 C 82.214844 117.523438 80.988281 129.328125 80.757812 141.136719 C 80.757812 147.117188 81.296875 153.09375 82.371094 159 C 74.855469 158.691406 67.34375 158.921875 59.828125 159.765625 C 49.554688 135.230469 49.632812 118.058594 39.742188 102.34375 C 54.691406 101.808594 69.640625 103.03125 84.441406 105.945312 Z M 92.109375 107.632812 C 102.992188 110.316406 113.421875 114.609375 123.15625 120.207031 C 123.15625 120.894531 123.082031 121.511719 123.082031 122.199219 C 123.082031 143.359375 131.132812 163.75 145.464844 179.3125 C 128.753906 167.890625 109.355469 160.992188 89.195312 159.382812 C 88.195312 154.09375 87.734375 148.726562 87.734375 143.359375 C 88.273438 131.324219 89.730469 119.441406 92.109375 107.632812 Z M 129.828125 199.476562 C 115.335938 199.476562 97.015625 189.433594 90.34375 164.59375 C 113.726562 166.203125 136.039062 174.714844 154.589844 189.050781 C 148.074219 195.640625 139.179688 199.398438 129.828125 199.476562 Z M 128.371094 123.578125 C 149.378906 137.992188 158.578125 157.234375 158.578125 173.027344 C 158.652344 177.628906 157.734375 182.226562 155.894531 186.519531 C 142.9375 174.101562 128.21875 154.859375 128.21875 128.640625 C 128.21875 126.875 128.21875 125.1875 128.371094 123.578125 Z M 128.90625 118.058594 C 130.285156 108.476562 133.277344 99.199219 137.648438 90.613281 C 153.363281 110.238281 165.09375 134.621094 165.09375 160.605469 C 165.09375 168.582031 163.179688 176.402344 159.496094 183.53125 C 160.800781 179.925781 161.414062 176.09375 161.414062 172.261719 C 161.414062 150.488281 149.070312 131.554688 128.90625 118.058594 Z M 120.703125 206.222656 C 97.855469 206.222656 74.625 191.964844 62.207031 165.054688 C 62.207031 164.976562 62.128906 164.976562 62.128906 164.976562 C 69.257812 164.210938 76.390625 163.90625 83.597656 164.136719 C 90.035156 188.054688 106.980469 202.007812 129.597656 202.007812 C 136.804688 201.929688 143.78125 199.707031 149.683594 195.566406 C 141.863281 202.847656 131.363281 206.683594 120.703125 206.222656 Z M 132.050781 83.945312 C 127.449219 93.605469 124.535156 103.953125 123.464844 114.535156 C 113.878906 109.015625 103.683594 104.796875 93.027344 101.882812 C 95.632812 85.171875 97.242188 68.074219 91.800781 51.515625 C 106.980469 60.023438 120.550781 70.988281 132.050781 83.945312 Z M 165.019531 30.511719 L 165.019531 139.527344 L 165.476562 139.527344 C 161.414062 119.824219 152.675781 101.425781 139.945312 85.785156 C 148.839844 68.84375 160.339844 52.972656 165.476562 30.511719 Z M 147.15625 199.9375 C 138.492188 208.140625 125.304688 213.582031 108.972656 213.582031 C 73.398438 213.582031 45.109375 182.152344 19.121094 175.328125 C 30.695312 170.957031 42.65625 167.8125 54.847656 165.898438 C 69.414062 194.953125 94.023438 209.289062 119.015625 209.289062 C 129.519531 209.289062 139.792969 205.761719 148.074219 199.398438 Z M 147.15625 199.9375 " fill-opacity="1" fill-rule="nonzero"/><path fill="#000000" d="M 105.320312 269.554688 C 104.628906 269.632812 104.324219 269.554688 104.167969 269.09375 C 103.402344 264.953125 99.800781 261.964844 95.660156 261.964844 C 92.058594 261.503906 88.835938 264.109375 88.375 267.636719 C 88.375 267.789062 88.375 268.019531 88.300781 268.171875 C 88.300781 272.773438 92.132812 274.765625 97.195312 276.375 C 104.476562 278.753906 109.230469 281.742188 109.230469 288.796875 C 109.230469 295.847656 103.710938 300.832031 94.203125 300.832031 C 90.597656 300.984375 86.921875 300.21875 83.625 298.761719 C 82.855469 298.453125 82.320312 297.84375 82.089844 297.152344 C 81.246094 294.621094 80.785156 291.941406 80.863281 289.257812 C 80.863281 288.796875 81.324219 288.640625 81.859375 288.566406 C 82.394531 288.488281 82.777344 288.640625 82.855469 289.027344 C 84.390625 293.089844 87.609375 298.53125 94.050781 298.53125 C 99.109375 298.53125 102.332031 295.542969 102.332031 291.480469 C 102.332031 288.027344 101.101562 285.191406 94.355469 282.96875 C 87.609375 280.746094 82.015625 277.222656 82.015625 270.398438 C 82.015625 264.496094 86.84375 259.433594 96.347656 259.433594 C 98.957031 259.511719 101.5625 259.816406 104.167969 260.429688 C 105.089844 260.660156 105.167969 260.8125 105.398438 261.425781 C 106.085938 263.804688 106.394531 266.257812 106.394531 268.710938 C 106.316406 269.246094 106.011719 269.476562 105.320312 269.554688 Z M 105.320312 269.554688 " fill-opacity="1" fill-rule="nonzero"/><path fill="#000000" d="M 214.113281 289.410156 C 214.648438 289.488281 214.957031 289.714844 214.878906 290.023438 C 214.570312 292.859375 213.726562 295.695312 212.503906 298.226562 C 212.273438 298.683594 211.886719 298.992188 211.351562 299.144531 C 207.824219 300.371094 204.144531 300.984375 200.386719 301.0625 C 187.125 301.0625 176.925781 294.394531 176.925781 280.285156 C 176.925781 266.5625 187.738281 259.359375 200.234375 259.359375 C 204.296875 259.433594 208.285156 260.046875 212.195312 260.964844 C 212.960938 261.121094 213.039062 261.273438 213.113281 261.964844 C 213.191406 263.648438 213.34375 266.640625 213.882812 270.242188 C 213.957031 270.625 213.726562 270.78125 213.113281 270.933594 C 212.425781 271.007812 212.117188 270.933594 212.042969 270.550781 C 210.96875 265.105469 205.984375 261.351562 200.464844 261.8125 C 192.875 261.8125 185.207031 267.179688 185.207031 279.445312 C 185.207031 292.167969 193.179688 298.453125 200.925781 298.453125 C 206.523438 298.53125 211.503906 294.929688 213.269531 289.640625 C 213.269531 289.410156 213.574219 289.332031 214.113281 289.410156 Z M 214.113281 289.410156 " fill-opacity="1" fill-rule="nonzero"/><path fill="#000000" d="M 229.519531 280.363281 C 229.75 268.632812 239.335938 259.28125 251.066406 259.511719 C 262.488281 259.664062 271.765625 268.941406 271.917969 280.363281 C 271.613281 292.09375 261.800781 301.292969 250.066406 300.984375 C 238.875 300.679688 229.828125 291.632812 229.519531 280.363281 Z M 250.757812 298.453125 C 257.964844 298.453125 263.714844 290.710938 263.714844 280.363281 C 263.714844 270.78125 259.039062 262.117188 250.757812 262.117188 C 242.476562 262.117188 237.800781 270.855469 237.800781 280.363281 C 237.726562 290.710938 243.476562 298.453125 250.757812 298.453125 Z M 250.757812 298.453125 " fill-opacity="1" fill-rule="nonzero"/><path fill="#000000" d="M 50.578125 280.285156 L 50.578125 291.402344 C 50.578125 297.765625 50.042969 297.917969 47.207031 298.300781 L 45.902344 298.453125 C 45.519531 298.53125 45.441406 298.914062 45.441406 299.375 C 45.519531 299.835938 45.597656 300.21875 45.980469 300.144531 C 45.980469 300.144531 51.191406 299.988281 54.027344 299.988281 C 56.867188 299.988281 62.078125 300.144531 62.078125 300.144531 C 62.460938 300.144531 62.617188 299.835938 62.617188 299.375 C 62.691406 298.914062 62.539062 298.453125 62.15625 298.453125 L 60.855469 298.300781 C 58.015625 297.917969 57.480469 297.765625 57.480469 291.402344 L 57.480469 269.171875 C 57.480469 262.808594 58.015625 262.652344 60.855469 262.269531 L 62.15625 262.117188 C 62.539062 262.042969 62.617188 261.65625 62.617188 261.195312 C 62.617188 260.738281 62.460938 260.429688 62.078125 260.429688 C 62.078125 260.429688 56.867188 260.582031 54.027344 260.582031 C 51.191406 260.582031 45.980469 260.429688 45.980469 260.429688 C 45.597656 260.429688 45.441406 260.738281 45.441406 261.195312 C 45.367188 261.65625 45.519531 262.117188 45.902344 262.117188 L 47.207031 262.269531 C 50.042969 262.652344 50.578125 262.808594 50.578125 269.171875 Z M 50.578125 280.285156 " fill-opacity="1" fill-rule="nonzero"/><path fill="#000000" d="M 153.007812 296.769531 C 153.695312 297.6875 153.160156 298.148438 152.394531 298.300781 L 150.859375 298.53125 C 150.476562 298.609375 150.402344 298.914062 150.476562 299.453125 C 150.554688 299.988281 150.707031 300.296875 151.011719 300.21875 C 151.011719 300.21875 156.074219 300.066406 158.832031 300.066406 C 161.671875 300.066406 166.730469 300.21875 166.730469 300.21875 C 167.113281 300.21875 167.269531 299.988281 167.34375 299.375 C 167.421875 298.761719 167.191406 298.453125 166.882812 298.453125 C 164.429688 298.53125 162.132812 297.460938 160.675781 295.542969 C 156.839844 291.25 149.25 281.511719 146.183594 277.449219 C 145.800781 277.066406 145.800781 276.375 146.183594 275.992188 C 146.183594 275.992188 146.261719 275.914062 146.261719 275.914062 C 147.945312 274.078125 153.464844 268.480469 155.921875 266.257812 C 158.375 263.804688 161.59375 262.347656 165.042969 262.042969 C 165.351562 261.964844 165.582031 261.582031 165.503906 261.042969 C 165.429688 260.582031 165.273438 260.277344 164.890625 260.355469 C 164.890625 260.355469 160.597656 260.507812 158.296875 260.507812 C 155.996094 260.507812 151.703125 260.355469 151.703125 260.355469 C 151.320312 260.355469 151.167969 260.738281 151.167969 261.121094 C 151.089844 261.65625 151.242188 261.964844 151.550781 262.042969 L 153.160156 262.5 C 153.464844 262.578125 153.695312 262.730469 153.695312 263.035156 C 153.773438 263.726562 152.472656 265.183594 150.785156 267.101562 C 148.40625 269.785156 144.269531 274.152344 142.042969 276.300781 C 140.203125 278.0625 139.4375 278.367188 138.746094 277.984375 C 138.210938 277.757812 137.980469 277.144531 137.980469 275.304688 L 137.980469 269.015625 C 137.980469 262.652344 138.515625 262.5 141.355469 262.117188 L 142.65625 261.964844 C 143.039062 261.886719 143.117188 261.503906 143.117188 261.042969 C 143.039062 260.582031 142.964844 260.277344 142.582031 260.277344 C 142.582031 260.277344 137.367188 260.429688 134.53125 260.429688 C 131.695312 260.429688 126.480469 260.277344 126.480469 260.277344 C 126.097656 260.277344 125.945312 260.582031 125.945312 261.042969 C 125.867188 261.503906 126.019531 261.964844 126.40625 261.964844 L 127.707031 262.117188 C 130.542969 262.5 131.082031 262.652344 131.082031 269.015625 L 131.082031 291.25 C 131.082031 297.613281 130.542969 297.765625 127.707031 298.148438 L 126.40625 298.300781 C 126.019531 298.378906 125.945312 298.761719 125.945312 299.222656 C 125.945312 299.683594 126.097656 300.066406 126.480469 299.988281 C 126.480469 299.988281 131.695312 299.835938 134.53125 299.835938 C 137.367188 299.835938 142.582031 299.988281 142.582031 299.988281 C 142.964844 299.988281 143.117188 299.683594 143.117188 299.222656 C 143.191406 298.761719 143.039062 298.300781 142.65625 298.300781 L 141.355469 298.148438 C 138.515625 297.765625 137.980469 297.613281 137.980469 291.25 L 137.980469 282.355469 C 137.980469 281.359375 138.363281 280.746094 138.976562 280.59375 C 139.667969 280.441406 140.203125 280.746094 140.894531 281.511719 C 144.191406 285.117188 150.402344 293.242188 153.007812 296.769531 Z M 153.007812 296.769531 " fill-opacity="1" fill-rule="nonzero"/><path fill="#000000" d="M 294 268.785156 C 301.589844 276.605469 313.320312 290.175781 322.214844 300.832031 C 322.597656 301.292969 322.980469 301.367188 323.746094 301.0625 C 324.4375 300.753906 324.515625 300.523438 324.515625 299.988281 C 324.359375 297 324.285156 294.164062 324.285156 291.480469 L 324.285156 271.164062 C 324.285156 264.109375 324.820312 262.730469 327.65625 262.347656 L 328.960938 262.195312 C 329.34375 262.117188 329.421875 261.734375 329.421875 261.273438 C 329.421875 260.8125 329.265625 260.429688 328.882812 260.507812 C 326.582031 260.660156 324.359375 260.660156 322.828125 260.660156 C 321.214844 260.660156 318.378906 260.582031 316.078125 260.507812 C 315.695312 260.507812 315.542969 260.8125 315.542969 261.273438 C 315.464844 261.734375 315.695312 262.195312 316.003906 262.195312 C 320.753906 262.425781 321.371094 263.417969 321.371094 271.164062 L 321.371094 289.871094 L 321.832031 289.410156 C 313.089844 280.515625 304.960938 271.164062 297.371094 261.273438 C 296.988281 260.734375 296.914062 260.507812 296.222656 260.582031 C 292.773438 260.738281 289.320312 260.738281 285.875 260.507812 C 285.488281 260.429688 285.335938 260.8125 285.335938 261.273438 C 285.261719 261.734375 285.414062 262.117188 285.796875 262.195312 C 290.394531 263.113281 291.699219 264.496094 291.699219 269.246094 L 291.699219 289.5625 C 291.699219 296.617188 291.164062 297.996094 288.328125 298.378906 L 287.023438 298.53125 C 286.640625 298.609375 286.5625 298.992188 286.5625 299.453125 C 286.5625 299.914062 286.714844 300.296875 287.097656 300.21875 C 289.398438 300.066406 291.621094 300.066406 293.15625 300.066406 C 294.765625 300.066406 296.914062 300.144531 299.214844 300.21875 C 299.597656 300.21875 299.75 299.914062 299.75 299.453125 C 299.824219 298.992188 299.671875 298.53125 299.289062 298.53125 L 297.984375 298.378906 C 295.148438 297.996094 294.613281 296.617188 294.613281 289.5625 L 294.613281 268.480469 Z M 294 268.785156 " fill-opacity="1" fill-rule="nonzero"/><path fill="#000000" d="M 329.03125 248.503906 C 329.722656 248.503906 330.257812 247.742188 330.257812 246.511719 C 330.257812 245.285156 329.722656 244.519531 329.03125 244.519531 L 45.898438 244.519531 C 45.207031 244.519531 44.671875 245.285156 44.671875 246.511719 C 44.671875 247.742188 45.207031 248.503906 45.898438 248.503906 Z M 329.03125 248.503906 " fill-opacity="1" fill-rule="nonzero"/><path fill="#000000" d="M 329.03125 316.046875 C 329.722656 316.046875 330.257812 315.28125 330.257812 314.054688 C 330.257812 312.828125 329.722656 312.058594 329.03125 312.058594 L 45.898438 312.058594 C 45.207031 312.058594 44.671875 312.828125 44.671875 314.054688 C 44.671875 315.28125 45.207031 316.046875 45.898438 316.046875 Z M 329.03125 316.046875 " fill-opacity="1" fill-rule="nonzero"/><path fill="#000000" d="M 354.769531 233.289062 C 354.847656 237.890625 351.246094 241.644531 346.644531 241.722656 C 342.042969 241.800781 338.289062 238.195312 338.210938 233.597656 C 338.132812 228.996094 341.738281 225.242188 346.339844 225.164062 C 346.414062 225.164062 346.492188 225.164062 346.492188 225.164062 C 351.015625 225.164062 354.769531 228.765625 354.769531 233.289062 Z M 340.203125 233.289062 C 340.433594 236.738281 343.347656 239.421875 346.875 239.269531 C 350.324219 239.039062 353.007812 236.128906 352.851562 232.601562 C 352.699219 229.226562 349.941406 226.621094 346.566406 226.621094 C 342.964844 226.773438 340.128906 229.6875 340.203125 233.289062 Z M 343.808594 231.449219 C 343.808594 230.605469 343.65625 230.222656 343.117188 230.148438 L 342.886719 230.148438 C 342.734375 229.917969 342.734375 229.53125 342.964844 229.457031 C 344.265625 229.378906 345.417969 229.304688 346.492188 229.304688 C 347.945312 229.304688 349.710938 229.609375 349.710938 231.449219 C 349.710938 232.214844 349.25 232.90625 348.5625 233.214844 C 348.40625 233.289062 348.40625 233.367188 348.5625 233.675781 C 348.945312 234.59375 349.480469 235.511719 350.171875 236.203125 C 350.398438 236.355469 350.554688 236.511719 350.707031 236.585938 C 350.859375 236.585938 350.859375 236.96875 350.707031 237.046875 C 350.398438 237.046875 350.09375 237.121094 349.789062 237.121094 C 348.792969 237.199219 347.871094 236.664062 347.410156 235.820312 L 346.492188 234.210938 C 346.414062 233.980469 346.183594 233.828125 345.953125 233.828125 C 345.648438 233.828125 345.570312 233.980469 345.570312 234.132812 L 345.570312 235.054688 C 345.570312 235.972656 345.570312 236.28125 346.492188 236.355469 L 346.644531 236.433594 C 346.796875 236.511719 346.796875 236.96875 346.644531 237.046875 C 346.03125 237.046875 345.492188 236.96875 344.726562 236.96875 C 344.039062 236.96875 343.425781 237.046875 342.886719 237.046875 C 342.734375 236.96875 342.734375 236.511719 342.808594 236.433594 L 343.039062 236.355469 C 343.730469 236.203125 343.730469 236.050781 343.730469 235.054688 Z M 345.570312 232.675781 C 345.570312 233.136719 345.648438 233.136719 346.339844 233.136719 C 347.027344 233.214844 347.5625 232.675781 347.640625 232.0625 C 347.640625 231.984375 347.640625 231.910156 347.640625 231.910156 C 347.640625 230.914062 347.179688 230.300781 346.414062 230.300781 C 345.648438 230.300781 345.570312 230.453125 345.570312 230.761719 Z M 345.570312 232.675781 " fill-opacity="1" fill-rule="nonzero"/><g fill="#000000" fill-opacity="1"><g transform="translate(58.702548, 358.651348)"><g><path d="M 11.765625 0 L 1.140625 -38.890625 L 5.921875 -38.890625 L 14.046875 -7.21875 L 14.4375 -7.21875 L 22.703125 -38.890625 L 28.03125 -38.890625 L 36.296875 -7.21875 L 36.6875 -7.21875 L 44.8125 -38.890625 L 49.59375 -38.890625 L 38.96875 0 L 34.09375 0 L 25.515625 -30.984375 L 25.21875 -30.984375 L 16.640625 0 Z M 11.765625 0 "/></g></g></g><g fill="#000000" fill-opacity="1"><g transform="translate(109.427614, 358.651348)"><g><path d="M 12.6875 0.6875 C 10.832031 0.6875 9.148438 0.335938 7.640625 -0.359375 C 6.140625 -1.066406 4.945312 -2.085938 4.0625 -3.421875 C 3.175781 -4.765625 2.734375 -6.382812 2.734375 -8.28125 C 2.734375 -9.945312 3.0625 -11.300781 3.71875 -12.34375 C 4.375 -13.394531 5.253906 -14.21875 6.359375 -14.8125 C 7.460938 -15.40625 8.679688 -15.847656 10.015625 -16.140625 C 11.347656 -16.441406 12.691406 -16.679688 14.046875 -16.859375 C 15.816406 -17.085938 17.253906 -17.257812 18.359375 -17.375 C 19.472656 -17.5 20.285156 -17.707031 20.796875 -18 C 21.304688 -18.289062 21.5625 -18.796875 21.5625 -19.515625 L 21.5625 -19.671875 C 21.5625 -21.546875 21.050781 -23 20.03125 -24.03125 C 19.019531 -25.070312 17.484375 -25.59375 15.421875 -25.59375 C 13.273438 -25.59375 11.59375 -25.125 10.375 -24.1875 C 9.164062 -23.25 8.316406 -22.25 7.828125 -21.1875 L 3.5625 -22.703125 C 4.320312 -24.484375 5.335938 -25.867188 6.609375 -26.859375 C 7.890625 -27.847656 9.285156 -28.539062 10.796875 -28.9375 C 12.304688 -29.34375 13.796875 -29.546875 15.265625 -29.546875 C 16.203125 -29.546875 17.28125 -29.429688 18.5 -29.203125 C 19.71875 -28.984375 20.898438 -28.53125 22.046875 -27.84375 C 23.191406 -27.164062 24.144531 -26.132812 24.90625 -24.75 C 25.664062 -23.375 26.046875 -21.53125 26.046875 -19.21875 L 26.046875 0 L 21.5625 0 L 21.5625 -3.953125 L 21.34375 -3.953125 C 21.039062 -3.316406 20.535156 -2.632812 19.828125 -1.90625 C 19.117188 -1.1875 18.175781 -0.570312 17 -0.0625 C 15.820312 0.4375 14.382812 0.6875 12.6875 0.6875 Z M 13.359375 -3.34375 C 15.140625 -3.34375 16.640625 -3.691406 17.859375 -4.390625 C 19.078125 -5.085938 20 -5.984375 20.625 -7.078125 C 21.25 -8.179688 21.5625 -9.34375 21.5625 -10.5625 L 21.5625 -14.65625 C 21.375 -14.425781 20.957031 -14.21875 20.3125 -14.03125 C 19.675781 -13.851562 18.941406 -13.695312 18.109375 -13.5625 C 17.285156 -13.425781 16.484375 -13.3125 15.703125 -13.21875 C 14.929688 -13.125 14.304688 -13.046875 13.828125 -12.984375 C 12.660156 -12.835938 11.570312 -12.59375 10.5625 -12.25 C 9.5625 -11.914062 8.753906 -11.414062 8.140625 -10.75 C 7.523438 -10.09375 7.21875 -9.191406 7.21875 -8.046875 C 7.21875 -6.492188 7.796875 -5.320312 8.953125 -4.53125 C 10.109375 -3.738281 11.578125 -3.34375 13.359375 -3.34375 Z M 13.359375 -3.34375 "/></g></g></g><g fill="#000000" fill-opacity="1"><g transform="translate(139.574091, 358.651348)"><g><path d="M 27.953125 -29.171875 L 17.171875 0 L 12.609375 0 L 1.828125 -29.171875 L 6.6875 -29.171875 L 14.734375 -5.921875 L 15.03125 -5.921875 L 23.09375 -29.171875 Z M 27.953125 -29.171875 "/></g></g></g><g fill="#000000" fill-opacity="1"><g transform="translate(169.340909, 358.651348)"><g><path d="M 16.328125 0.609375 C 13.515625 0.609375 11.09375 -0.015625 9.0625 -1.265625 C 7.03125 -2.515625 5.46875 -4.257812 4.375 -6.5 C 3.28125 -8.75 2.734375 -11.367188 2.734375 -14.359375 C 2.734375 -17.335938 3.28125 -19.96875 4.375 -22.25 C 5.46875 -24.539062 7 -26.328125 8.96875 -27.609375 C 10.9375 -28.898438 13.238281 -29.546875 15.875 -29.546875 C 17.394531 -29.546875 18.894531 -29.289062 20.375 -28.78125 C 21.851562 -28.28125 23.195312 -27.460938 24.40625 -26.328125 C 25.625 -25.191406 26.59375 -23.691406 27.3125 -21.828125 C 28.039062 -19.972656 28.40625 -17.6875 28.40625 -14.96875 L 28.40625 -13.0625 L 7.234375 -13.0625 C 7.335938 -9.945312 8.21875 -7.5625 9.875 -5.90625 C 11.539062 -4.25 13.691406 -3.421875 16.328125 -3.421875 C 18.085938 -3.421875 19.597656 -3.800781 20.859375 -4.5625 C 22.128906 -5.320312 23.050781 -6.457031 23.625 -7.96875 L 27.953125 -6.765625 C 27.265625 -4.554688 25.894531 -2.773438 23.84375 -1.421875 C 21.789062 -0.0664062 19.285156 0.609375 16.328125 0.609375 Z M 7.234375 -16.9375 L 23.84375 -16.9375 C 23.84375 -19.40625 23.117188 -21.453125 21.671875 -23.078125 C 20.234375 -24.703125 18.300781 -25.515625 15.875 -25.515625 C 14.164062 -25.515625 12.679688 -25.113281 11.421875 -24.3125 C 10.171875 -23.519531 9.1875 -22.46875 8.46875 -21.15625 C 7.75 -19.851562 7.335938 -18.445312 7.234375 -16.9375 Z M 7.234375 -16.9375 "/></g></g></g><g fill="#000000" fill-opacity="1"><g transform="translate(200.474562, 358.651348)"><g/></g></g><g fill="#000000" fill-opacity="1"><g transform="translate(215.509835, 358.651348)"><g><path d="M 36 -26.734375 L 31.296875 -26.734375 C 30.910156 -28.535156 30.179688 -30.046875 29.109375 -31.265625 C 28.035156 -32.492188 26.738281 -33.425781 25.21875 -34.0625 C 23.695312 -34.695312 22.078125 -35.015625 20.359375 -35.015625 C 18.003906 -35.015625 15.875 -34.414062 13.96875 -33.21875 C 12.0625 -32.03125 10.546875 -30.28125 9.421875 -27.96875 C 8.304688 -25.65625 7.75 -22.8125 7.75 -19.4375 C 7.75 -16.070312 8.304688 -13.226562 9.421875 -10.90625 C 10.546875 -8.59375 12.0625 -6.84375 13.96875 -5.65625 C 15.875 -4.46875 18.003906 -3.875 20.359375 -3.875 C 22.078125 -3.875 23.695312 -4.1875 25.21875 -4.8125 C 26.738281 -5.445312 28.035156 -6.378906 29.109375 -7.609375 C 30.179688 -8.835938 30.910156 -10.351562 31.296875 -12.15625 L 36 -12.15625 C 35.519531 -9.5 34.535156 -7.222656 33.046875 -5.328125 C 31.566406 -3.429688 29.734375 -1.976562 27.546875 -0.96875 C 25.359375 0.03125 22.960938 0.53125 20.359375 0.53125 C 17.035156 0.53125 14.082031 -0.273438 11.5 -1.890625 C 8.925781 -3.515625 6.894531 -5.820312 5.40625 -8.8125 C 3.925781 -11.800781 3.1875 -15.34375 3.1875 -19.4375 C 3.1875 -23.539062 3.925781 -27.085938 5.40625 -30.078125 C 6.894531 -33.066406 8.925781 -35.367188 11.5 -36.984375 C 14.082031 -38.609375 17.035156 -39.421875 20.359375 -39.421875 C 22.960938 -39.421875 25.359375 -38.914062 27.546875 -37.90625 C 29.734375 -36.90625 31.566406 -35.457031 33.046875 -33.5625 C 34.535156 -31.664062 35.519531 -29.390625 36 -26.734375 Z M 36 -26.734375 "/></g></g></g><g fill="#000000" fill-opacity="1"><g transform="translate(254.388931, 358.651348)"><g><path d="M 4.09375 0 L 4.09375 -29.171875 L 8.578125 -29.171875 L 8.578125 0 Z M 6.375 -34.03125 C 5.5 -34.03125 4.75 -34.328125 4.125 -34.921875 C 3.5 -35.515625 3.1875 -36.226562 3.1875 -37.0625 C 3.1875 -37.894531 3.5 -38.609375 4.125 -39.203125 C 4.75 -39.796875 5.5 -40.09375 6.375 -40.09375 C 7.25 -40.09375 8 -39.796875 8.625 -39.203125 C 9.25 -38.609375 9.5625 -37.894531 9.5625 -37.0625 C 9.5625 -36.226562 9.25 -35.515625 8.625 -34.921875 C 8 -34.328125 7.25 -34.03125 6.375 -34.03125 Z M 6.375 -34.03125 "/></g></g></g><g fill="#000000" fill-opacity="1"><g transform="translate(267.070192, 358.651348)"><g><path d="M 16.78125 -29.171875 L 16.78125 -25.375 L 10.5625 -25.375 L 10.5625 -8.359375 C 10.5625 -7.085938 10.742188 -6.140625 11.109375 -5.515625 C 11.484375 -4.890625 11.960938 -4.472656 12.546875 -4.265625 C 13.140625 -4.054688 13.769531 -3.953125 14.4375 -3.953125 C 14.925781 -3.953125 15.328125 -3.976562 15.640625 -4.03125 C 15.960938 -4.09375 16.21875 -4.140625 16.40625 -4.171875 L 17.3125 -0.15625 C 17.007812 -0.0390625 16.585938 0.0703125 16.046875 0.1875 C 15.503906 0.3125 14.8125 0.375 13.96875 0.375 C 12.707031 0.375 11.472656 0.101562 10.265625 -0.4375 C 9.054688 -0.976562 8.054688 -1.804688 7.265625 -2.921875 C 6.472656 -4.035156 6.078125 -5.441406 6.078125 -7.140625 L 6.078125 -25.375 L 1.671875 -25.375 L 1.671875 -29.171875 L 6.078125 -29.171875 L 6.078125 -36.15625 L 10.5625 -36.15625 L 10.5625 -29.171875 Z M 16.78125 -29.171875 "/></g></g></g><g fill="#000000" fill-opacity="1"><g transform="translate(286.50974, 358.651348)"><g><path d="M 6.828125 11.3125 C 6.078125 11.3125 5.398438 11.25 4.796875 11.125 C 4.203125 11.007812 3.789062 10.894531 3.5625 10.78125 L 4.703125 6.828125 C 6.335938 7.253906 7.703125 7.25 8.796875 6.8125 C 9.890625 6.375 10.832031 5.066406 11.625 2.890625 L 12.609375 0.15625 L 1.828125 -29.171875 L 6.6875 -29.171875 L 14.734375 -5.921875 L 15.03125 -5.921875 L 23.09375 -29.171875 L 27.953125 -29.171875 L 15.421875 4.703125 C 13.773438 9.109375 10.910156 11.3125 6.828125 11.3125 Z M 6.828125 11.3125 "/></g></g></g></svg>