<svg width="289" height="422" viewBox="0 0 289 422" fill="none" xmlns="http://www.w3.org/2000/svg">
<path d="M144.5 1.14568C144.5 1.14568 144.5 9.584 165.318 13.3668C181.105 16.2356 182.778 28.4974 182.778 28.4974C211.318 23.2597 216.69 42.1732 216.69 42.1732C247.581 39.5545 247.916 63.1234 247.916 63.1234C282.5 61.9596 265.376 91.9301 265.376 91.9301C265.376 91.9301 294.19 104.168 274.442 123.065C258.325 138.486 282.5 147.798 282.5 147.798V415.495L6.5 415.35V147.652C6.5 147.652 30.6752 138.341 14.5584 122.919C-5.19018 104.022 23.6242 91.7844 23.6242 91.7844C23.6242 91.7844 6.5 61.8139 41.0839 62.9777C41.0839 62.9777 41.4198 39.4088 72.3101 42.0275C72.3101 42.0275 77.6822 23.1141 106.222 28.3518C106.222 28.3518 107.895 16.0896 123.682 13.2211C144.5 9.43832 144.5 1 144.5 1" fill="white"/>
<path d="M144.5 1.14568C144.5 1.14568 144.5 9.584 165.318 13.3668C181.105 16.2356 182.778 28.4974 182.778 28.4974C211.318 23.2597 216.69 42.1732 216.69 42.1732C247.581 39.5545 247.916 63.1234 247.916 63.1234C282.5 61.9596 265.376 91.9301 265.376 91.9301C265.376 91.9301 294.19 104.168 274.442 123.065C258.325 138.486 282.5 147.798 282.5 147.798V415.495L6.5 415.35V147.652C6.5 147.652 30.6752 138.341 14.5584 122.919C-5.19018 104.022 23.6242 91.7844 23.6242 91.7844C23.6242 91.7844 6.5 61.8139 41.0839 62.9777C41.0839 62.9777 41.4198 39.4088 72.3101 42.0275C72.3101 42.0275 77.6822 23.1141 106.222 28.3518C106.222 28.3518 107.895 16.0896 123.682 13.2211C144.5 9.43832 144.5 1 144.5 1" stroke="url(#paint0_linear_380_1798)" stroke-width="12" stroke-miterlimit="10"/>
<defs>
<linearGradient id="paint0_linear_380_1798" x1="144.5" y1="1" x2="144.5" y2="415.495" gradientUnits="userSpaceOnUse">
<stop stop-color="#F1C77B"/>
<stop offset="1" stop-color="#E8A978"/>
</linearGradient>
</defs>
</svg>
