<svg width="24" height="24" viewBox="0 0 24 24" fill="none" xmlns="http://www.w3.org/2000/svg">
<g clip-path="url(#clip0_52_173)">
<path d="M18.8363 16.4092H10.2306C9.44741 16.4036 8.68888 16.1348 8.07697 15.6461C7.46505 15.1573 7.03531 14.4769 6.85684 13.7143L5.48541 8.13946C5.35924 7.62182 5.35277 7.08222 5.4665 6.5617C5.58023 6.04119 5.81117 5.55346 6.14174 5.13561C6.47231 4.71777 6.89382 4.38081 7.37421 4.15037C7.85459 3.91992 8.3812 3.80206 8.91399 3.80575H20.2283C20.7611 3.80206 21.2877 3.91992 21.7681 4.15037C22.2484 4.38081 22.6699 4.71777 23.0005 5.13561C23.3311 5.55346 23.562 6.04119 23.6758 6.5617C23.7895 7.08222 23.783 7.62182 23.6568 8.13946L22.2854 13.728C22.1002 14.5001 21.6578 15.1862 21.031 15.6734C20.4042 16.1607 19.6302 16.4202 18.8363 16.4092ZM8.87284 5.52003C8.6018 5.52086 8.33446 5.583 8.09084 5.70181C7.84723 5.82061 7.63365 5.993 7.4661 6.20606C7.29856 6.41911 7.1814 6.66732 7.12339 6.93208C7.06537 7.19684 7.06802 7.4713 7.13113 7.73489L8.50256 13.3235C8.59544 13.7151 8.81811 14.0638 9.13435 14.3128C9.45058 14.5618 9.84177 14.6965 10.2443 14.6949H18.8363C19.2388 14.6965 19.63 14.5618 19.9462 14.3128C20.2624 14.0638 20.4851 13.7151 20.578 13.3235L21.9494 7.73489C22.0139 7.47119 22.0176 7.19627 21.9601 6.93094C21.9026 6.66562 21.7856 6.41684 21.6178 6.20344C21.45 5.99005 21.2358 5.81762 20.9915 5.69922C20.7472 5.58082 20.4792 5.51954 20.2077 5.52003H8.87284Z" fill="black"/>
<path d="M6.4869 9.59998C6.29107 9.59767 6.10194 9.52837 5.95098 9.40361C5.80003 9.27885 5.69634 9.10615 5.65719 8.91427L4.42976 3.58627C4.31642 3.10091 4.0417 2.66838 3.65057 2.35946C3.25943 2.05054 2.77503 1.88351 2.27661 1.8857H1.1589C0.931572 1.8857 0.713555 1.79539 0.552809 1.63464C0.392064 1.4739 0.301758 1.25588 0.301758 1.02855C0.301758 0.801225 0.392064 0.583207 0.552809 0.422462C0.713555 0.261716 0.931572 0.171411 1.1589 0.171411H2.27661C3.16242 0.168316 4.0231 0.46568 4.71807 1.01493C5.41304 1.56418 5.90123 2.33286 6.1029 3.19541L7.32347 8.52341C7.34989 8.63285 7.35431 8.74645 7.33648 8.85761C7.31864 8.96878 7.27891 9.07529 7.21959 9.17098C7.16026 9.26666 7.08252 9.34962 6.99089 9.41502C6.89925 9.48042 6.79553 9.52698 6.68576 9.55198C6.62133 9.57487 6.55468 9.59096 6.4869 9.59998ZM10.3612 23.8286C9.8187 23.8286 9.2884 23.6677 8.83734 23.3663C8.38628 23.0649 8.03472 22.6365 7.82712 22.1353C7.61952 21.6341 7.5652 21.0827 7.67103 20.5506C7.77687 20.0185 8.0381 19.5298 8.42169 19.1462C8.80529 18.7626 9.29402 18.5014 9.82608 18.3955C10.3581 18.2897 10.9096 18.344 11.4108 18.5516C11.912 18.7592 12.3404 19.1108 12.6418 19.5618C12.9432 20.0129 13.104 20.5432 13.104 21.0857C13.104 21.8131 12.8151 22.5108 12.3007 23.0252C11.7863 23.5396 11.0886 23.8286 10.3612 23.8286ZM10.3612 20.0297C10.155 20.0297 9.95353 20.0908 9.78212 20.2054C9.61072 20.3199 9.47713 20.4827 9.39824 20.6731C9.31935 20.8636 9.29871 21.0731 9.33893 21.2753C9.37915 21.4775 9.47841 21.6632 9.62418 21.809C9.76995 21.9548 9.95566 22.054 10.1578 22.0942C10.36 22.1345 10.5696 22.1138 10.7601 22.0349C10.9505 21.956 11.1133 21.8224 11.2278 21.651C11.3423 21.4796 11.4035 21.2781 11.4035 21.072C11.4035 20.7955 11.2937 20.5304 11.0982 20.335C10.9027 20.1395 10.6376 20.0297 10.3612 20.0297ZM19.8378 23.8286C19.2953 23.8286 18.765 23.6677 18.3139 23.3663C17.8628 23.0649 17.5113 22.6365 17.3037 22.1353C17.0961 21.6341 17.0418 21.0827 17.1476 20.5506C17.2534 20.0185 17.5147 19.5298 17.8983 19.1462C18.2819 18.7626 18.7706 18.5014 19.3027 18.3955C19.8347 18.2897 20.3862 18.344 20.8874 18.5516C21.3886 18.7592 21.817 19.1108 22.1184 19.5618C22.4198 20.0129 22.5806 20.5432 22.5806 21.0857C22.5806 21.8131 22.2916 22.5108 21.7773 23.0252C21.2629 23.5396 20.5652 23.8286 19.8378 23.8286ZM19.8378 20.0297C19.6319 20.031 19.4311 20.0933 19.2606 20.2087C19.0901 20.324 18.9576 20.4873 18.8797 20.6778C18.8019 20.8684 18.7822 21.0778 18.8232 21.2795C18.8642 21.4812 18.964 21.6663 19.11 21.8114C19.2561 21.9565 19.4418 22.055 19.6438 22.0947C19.8458 22.1344 20.055 22.1133 20.245 22.0343C20.4351 21.9552 20.5975 21.8216 20.7117 21.6503C20.8259 21.4791 20.8869 21.2778 20.8869 21.072C20.8869 20.9345 20.8597 20.7984 20.8069 20.6715C20.7541 20.5446 20.6767 20.4294 20.5792 20.3325C20.4817 20.2357 20.366 20.159 20.2387 20.1071C20.1115 20.0551 19.9752 20.0288 19.8378 20.0297Z" fill="black"/>
<path d="M19.8378 20.0298H8.41377C7.70632 20.0298 7.02785 19.7488 6.52761 19.2485C6.02737 18.7483 5.74634 18.0698 5.74634 17.3624C5.74634 16.6549 6.02737 15.9765 6.52761 15.4762C7.02785 14.976 7.70632 14.6949 8.41377 14.6949H10.2309C10.4582 14.6949 10.6763 14.7853 10.837 14.946C10.9977 15.1067 11.0881 15.3248 11.0881 15.5521C11.0881 15.7794 10.9977 15.9974 10.837 16.1582C10.6763 16.3189 10.4582 16.4092 10.2309 16.4092H8.41377C8.16098 16.4092 7.91854 16.5097 7.73979 16.6884C7.56104 16.8672 7.46062 17.1096 7.46062 17.3624C7.46062 17.6152 7.56104 17.8576 7.73979 18.0363C7.91854 18.2151 8.16098 18.3155 8.41377 18.3155H19.8378C20.0651 18.3155 20.2831 18.4058 20.4439 18.5666C20.6046 18.7273 20.6949 18.9453 20.6949 19.1727C20.6949 19.4 20.6046 19.618 20.4439 19.7788C20.2831 19.9395 20.0651 20.0298 19.8378 20.0298Z" fill="black"/>
</g>
<defs>
<clipPath id="clip0_52_173">
<rect width="24" height="24" fill="white"/>
</clipPath>
</defs>
</svg>
