<svg width="36" height="36" viewBox="0 0 36 36" fill="none" xmlns="http://www.w3.org/2000/svg">
<path d="M18 36C27.9411 36 36 27.9411 36 18C36 8.05887 27.9411 0 18 0C8.05887 0 0 8.05887 0 18C0 27.9411 8.05887 36 18 36Z" fill="#D81159"/>
<path d="M36 18.2245C35.8812 27.998 27.978 35.8913 18.2053 35.9995L7.875 25.6713L7.10156 23.7982V12.2037L7.92422 10.2455L9.75234 9.55078H26.2455L27.9232 10.1491L36 18.2245Z" fill="#A8004C"/>
<path d="M26.0065 9.37109H9.99352C8.39633 9.37109 7.10156 10.6659 7.10156 12.263V23.7359C7.10156 25.3331 8.39633 26.6279 9.99352 26.6279H26.0065C27.6037 26.6279 28.8984 25.3331 28.8984 23.7359V12.263C28.8984 10.6659 27.6037 9.37109 26.0065 9.37109Z" fill="#FBB13C"/>
<path d="M28.1326 25.6957C27.8621 25.9899 27.5334 26.2246 27.1674 26.385C26.8014 26.5454 26.406 26.6279 26.0063 26.6274H14.897L18.703 21.3975L20.7336 18.6019C20.8623 18.424 21.0314 18.2792 21.227 18.1793C21.4226 18.0794 21.639 18.0273 21.8586 18.0273C22.0782 18.0273 22.2947 18.0794 22.4902 18.1793C22.6858 18.2792 22.8549 18.424 22.9836 18.6019L28.1326 25.6957Z" fill="#FFF8EE"/>
<path d="M22.4999 26.6276H9.99341C9.54735 26.6283 9.10721 26.5255 8.70764 26.3272C8.30806 26.1289 7.95994 25.8407 7.69067 25.485L13.5568 17.4125C13.6856 17.2351 13.8545 17.0908 14.0497 16.9913C14.2449 16.8917 14.461 16.8398 14.6801 16.8398C14.8992 16.8398 15.1152 16.8917 15.3105 16.9913C15.5057 17.0908 15.6746 17.2351 15.8033 17.4125L18.703 21.3978L22.4999 26.6276Z" fill="#FCE8D4"/>
<path d="M22.5 15.2236C23.5228 15.2236 24.352 14.3944 24.352 13.3716C24.352 12.3487 23.5228 11.5195 22.5 11.5195C21.4771 11.5195 20.6479 12.3487 20.6479 13.3716C20.6479 14.3944 21.4771 15.2236 22.5 15.2236Z" fill="#FCE8D4"/>
</svg>
