<svg width="247" height="123" viewBox="0 0 247 123" fill="none" xmlns="http://www.w3.org/2000/svg">
<path d="M242.589 68.7782H53.3809V115.014V115.014H242.589V68.7782Z" fill="#20233B"/>
<path d="M202.72 17.2231H127.993V19.391H202.72V17.2231Z" fill="#20233B"/>
<path d="M242.589 120.535H61.1172V122.703H242.589V120.535Z" fill="#20233B"/>
<path d="M225.187 24.9111H49.7705V68.7785H225.187V24.9111Z" fill="#EB852C"/>
<path d="M217.466 4.4266L224.292 18.7436L225.325 3.18542L217.466 4.4266Z" fill="#20233B"/>
<path d="M237.903 0L227.239 20.7921L246.358 8.14438L237.903 0Z" fill="#20233B"/>
<path d="M246.5 18.7349L231.646 22.9002L246.365 26.5138L246.5 18.7349Z" fill="#20233B"/>
<path d="M108.895 52.1793C108.912 44.7006 107.565 37.4732 104.891 30.6933C104.11 28.7152 103.221 26.7863 102.227 24.9111L93.6283 24.9112L58.9192 81.4184L54.1182 115.015L65.0334 115.015C74.3159 109.876 82.0334 104.42 88.3715 98.5334C102.915 85.0264 109.82 69.431 108.895 52.1793Z" fill="#DE721F"/>
<path d="M132.15 41.0343L131.191 46.4164H140.606L139.754 51.2996H130.338L128.597 61.2084H122.77L127.211 35.973H143.023L142.134 41.0343H132.15Z" fill="white"/>
<path d="M163.665 61.2084H156.985L152.757 51.0501H150.341L148.635 61.2084H142.879L147.32 35.973H155.919C158.69 35.973 160.852 36.5611 162.404 37.7373C163.955 38.9134 164.731 40.5592 164.731 42.6739C164.731 44.7178 164.174 46.387 163.061 47.6819C161.947 48.9772 160.443 49.8622 158.548 50.3372L163.665 61.2084ZM153.752 46.7728C155.338 46.7728 156.57 46.5132 157.447 45.9936C158.323 45.4741 158.762 44.6469 158.762 43.5131C158.762 42.4739 158.394 41.7655 157.66 41.3875C156.926 41.0098 155.942 40.8204 154.711 40.8204H152.188L151.122 46.7728H153.752Z" fill="white"/>
<path d="M166.366 61.2084L170.808 35.973H186.904L186.015 41.0343H175.569L174.716 45.9175H184.665L183.812 50.6937H173.863L172.94 56.1114H184.381L183.492 61.2085H166.366V61.2084Z" fill="white"/>
<path d="M187.401 61.2084L191.843 35.973H207.939L207.05 41.0343H196.604L195.751 45.9175H205.7L204.847 50.6937H194.899L193.975 56.1114H205.416L204.528 61.2085H187.401V61.2084Z" fill="white"/>
<path d="M108.846 82.48H115.794C116.855 82.48 117.911 82.6262 118.963 82.9188C120.014 83.2114 120.96 83.6769 121.8 84.3154C122.64 84.9539 123.325 85.7743 123.855 86.7761C124.386 87.7782 124.651 88.9885 124.651 90.4071C124.651 92.0564 124.363 93.5552 123.789 94.9027C123.214 96.2507 122.414 97.399 121.389 98.3476C120.363 99.2965 119.152 100.028 117.756 100.542C116.359 101.057 114.839 101.314 113.195 101.314H105.531L108.846 82.48ZM110.543 97.483H113.381C114.477 97.483 115.444 97.3014 116.284 96.9376C117.124 96.5744 117.822 96.0865 118.379 95.4746C118.936 94.8628 119.356 94.1624 119.639 93.373C119.922 92.5841 120.063 91.7727 120.063 90.939C120.063 90.3005 119.961 89.6933 119.758 89.1168C119.555 88.5407 119.241 88.0395 118.817 87.6138C118.393 87.1882 117.858 86.8515 117.213 86.6029C116.567 86.3549 115.803 86.2306 114.919 86.2306H112.506L110.543 97.483Z" fill="white"/>
<path d="M126.056 101.314L129.37 82.48H141.383L140.72 86.2573H132.924L132.287 89.9017H139.712L139.076 93.4662H131.651L130.961 97.5096H139.5L138.837 101.314H126.056Z" fill="white"/>
<path d="M141.756 101.314L145.071 82.48H149.499L146.847 97.4565H154.219L153.53 101.314H141.756Z" fill="white"/>
<path d="M155.811 101.314L159.125 82.48H163.554L160.239 101.314H155.811Z" fill="white"/>
<path d="M172.967 101.314H168.327L165.463 82.48H170.157L171.615 95.9402H171.721L179.04 82.48H184.158L172.967 101.314Z" fill="white"/>
<path d="M182.3 101.314L185.615 82.48H197.627L196.964 86.2573H189.168L188.531 89.9017H195.956L195.32 93.4662H187.895L187.205 97.5096H195.744L195.081 101.314H182.3Z" fill="white"/>
<path d="M213.512 101.314H208.527L205.371 93.7323H203.568L202.295 101.314H197.999L201.314 82.48H207.731C209.8 82.48 211.413 82.9188 212.571 83.7968C213.728 84.6746 214.308 85.9029 214.308 87.481C214.308 89.0064 213.892 90.2521 213.061 91.2185C212.23 92.1853 211.107 92.8458 209.693 93.2003L213.512 101.314ZM206.114 90.5401C207.298 90.5401 208.217 90.3464 208.871 89.9586C209.525 89.5708 209.852 88.9536 209.852 88.1073C209.852 87.3318 209.578 86.803 209.03 86.5209C208.482 86.239 207.748 86.0977 206.829 86.0977H204.947L204.151 90.5401H206.114Z" fill="white"/>
<path d="M225.204 93.3066L223.772 101.314H219.37L220.775 93.3066L215.976 82.48H220.908L223.586 89.6091L228.969 82.48H234.326L225.204 93.3066Z" fill="white"/>
<path d="M66.684 68.7788L58.9202 81.4185L54.1191 115.015L65.0344 115.015C74.3169 109.876 82.0344 104.42 88.3725 98.5334C98.0934 89.5053 104.401 79.5439 107.239 68.7788H66.684Z" fill="#10131F"/>
<path d="M0.574605 51.4353C1.16521 31.2066 14.9455 12.351 33.9374 5.5802C52.7214 -1.52466 75.1507 3.85257 88.6397 18.6447C97.4374 28.1306 102.467 40.3589 102.391 54.0195C104.346 88.2312 70.9995 108.216 43.2018 119.974L43.3433 104.011C18.3639 100.323 -0.852357 76.7303 0.574605 51.4353Z" fill="#EB852C"/>
<path d="M25.7556 45.3168H31.1543C31.8808 45.3168 32.6871 44.7246 32.969 43.9889C33.2599 43.2297 32.8623 42.6082 32.1169 42.6082H26.7512C25.0375 42.5825 24.0179 45.3427 25.7556 45.3168Z" fill="white"/>
<path d="M26.1231 48.8928H20.102C19.3656 48.8928 18.5449 49.4991 18.2687 50.247C17.9925 50.995 18.3663 51.6013 19.1036 51.6013H25.1322C26.8532 51.627 27.8636 48.8669 26.1231 48.8928Z" fill="white"/>
<path d="M15.4598 48.8929H10.7984C10.062 48.8929 9.23859 49.4992 8.95923 50.2471C8.67987 50.995 9.05094 51.6014 9.78821 51.6014H14.482C16.2257 51.6173 17.2135 48.8611 15.4598 48.8929Z" fill="white"/>
<path d="M27.3575 39.8021H31.1769C32.8889 39.8278 33.8963 37.0676 32.1655 37.0935H28.3512C26.6414 37.0678 25.6247 39.8279 27.3575 39.8021Z" fill="white"/>
<path d="M15.7755 45.3168H19.5948C21.3069 45.3425 22.3142 42.5823 20.5835 42.6082H16.7691C15.0594 42.5825 14.0426 45.3427 15.7755 45.3168Z" fill="white"/>
<path d="M24.605 55.178H19.8539C18.1299 55.1523 17.1078 57.9125 18.8556 57.8866H23.6389C25.3878 57.9024 26.3636 55.1462 24.605 55.178Z" fill="white"/>
<path d="M25.0215 61.9178H68.6438L76.8365 38.2034C77.0482 37.5904 76.7356 37.0933 76.1355 37.0933C69.8594 37.0934 38.4704 37.0934 38.4704 37.0934C36.5954 37.1633 36.0417 39.9944 37.7634 39.8995C37.7632 39.8996 47.9088 39.8996 47.9088 39.8996C49.6434 39.8801 48.7132 42.6202 46.9684 42.6082H36.2842C34.1444 42.5943 32.8263 45.9924 35.0216 45.9821C35.0214 45.9821 47.7677 45.9821 47.7677 45.9821C49.5139 45.9511 48.5798 48.7045 46.8301 48.6906H33.1777C30.914 48.7671 30.2446 52.184 32.328 52.0643C33.4608 52.2653 37.5642 51.2981 36.7308 53.4448C35.2167 56.64 29.9253 52.8605 28.2471 56.2961C27.7905 57.2854 28.2452 58.1467 29.2322 58.1467C30.3367 58.3561 34.0852 57.5597 33.3906 59.5472C33.1337 60.3116 32.2998 60.9373 31.5476 60.9373L25.5031 60.8553C24.8237 60.8597 24.5072 61.8157 25.0215 61.9178Z" fill="white"/>
<path d="M88.6377 66.9452C88.8046 66.5734 88.8633 66.1056 88.4475 66.0522L88.9773 64.4715L89.4698 63.9953C89.9778 63.5311 90.1128 62.6908 90.3459 62.0719C90.4808 61.4595 90.8374 60.5584 90.5937 60.1744L90.2235 59.6874C90.3485 58.6649 90.3683 57.6662 90.2802 56.7059L90.282 56.7062C90.2193 54.7444 87.9562 49.0325 87.245 46.8075C87.1691 46.5696 87.0765 46.3413 86.97 46.1219C86.9218 46.0225 86.8707 45.9253 86.8168 45.8304C85.9207 44.2498 84.164 43.3959 82.0654 43.3591L77.6161 43.2811L70.3364 64.4812H25.5046L24.79 66.4418H27.4467L26.5047 69.0352C26.4516 69.1813 26.2909 69.2996 26.1457 69.2996C26.0006 69.2996 25.84 69.418 25.7868 69.564L25.0117 71.6966H26.7452L27.1578 70.5586L32.4425 70.5589C32.0565 71.5349 31.9823 72.4142 32.1403 73.1678C32.4287 74.8879 33.8074 76.061 35.8829 76.061C38.8719 76.061 42.1587 73.6302 43.2241 70.6317C43.2329 70.6071 43.238 70.5834 43.2464 70.5589H68.0799C68.0712 70.5834 68.0596 70.6071 68.0511 70.6317C67.02 73.6302 68.6072 76.061 71.5964 76.061C74.5855 76.061 77.8325 73.6302 78.8488 70.6317C78.857 70.6074 78.8617 70.5841 78.8696 70.5599C78.8697 70.5596 78.8699 70.5592 78.87 70.5589H80.3776L86.8458 70.5597C87.4849 70.5676 87.6973 69.8152 87.8281 69.362L88.6377 66.9452ZM86.3863 57.7067H75.4811C75.2417 57.7067 75.115 57.5103 75.198 57.2683L78.2091 48.482C78.2919 48.2405 78.5511 48.0445 78.7891 48.0436L83.3318 48.025C84.6076 48.0198 85.5338 48.7385 85.7323 49.887L86.987 57.066C87.0384 57.3578 86.7114 57.7067 86.3863 57.7067Z" fill="white"/>
</svg>
