<svg width="152" height="140" viewBox="0 0 152 140" fill="none" xmlns="http://www.w3.org/2000/svg">
<g clip-path="url(#clip0_191_892)">
<path d="M135.781 34.2967C131.778 39.5183 131.809 45.2237 127.651 53.3745C124.61 53.1198 121.569 53.0179 118.528 53.1198C118.993 51.1585 119.21 49.1718 119.179 47.185C119.086 43.2624 118.59 39.3401 117.69 35.4939C123.648 34.5514 129.699 34.1439 135.781 34.2967ZM116.325 47.9236C116.325 49.7066 116.138 51.4896 115.735 53.2471C107.574 53.782 99.723 56.0744 92.9583 59.8696C98.7611 54.6989 101.988 47.9236 102.019 40.8937C102.019 40.6644 102.019 40.4607 101.988 40.2315C105.929 38.3466 110.149 36.9458 114.556 36.0542C115.549 39.9768 116.138 43.9503 116.325 47.9236ZM89.2967 63.1043C96.8061 58.3413 105.836 55.5395 115.3 54.9792C112.601 63.2571 105.184 66.5684 99.3197 66.5684C95.5339 66.5684 91.9343 65.3203 89.2967 63.1043ZM99.9713 43.0332C99.9713 51.7443 94.0133 58.1375 88.7692 62.2638C88.0245 60.8374 87.6521 59.3346 87.6832 57.7809C87.6832 52.5338 91.4069 46.1408 99.9092 41.3521C99.9713 41.9126 99.9713 42.4729 99.9713 43.0332ZM86.5349 57.5263C86.5349 58.7997 86.7831 60.0733 87.3106 61.2704C85.8212 58.927 85.0455 56.3036 85.0455 53.6546C85.0455 45.02 89.7932 36.9458 96.1545 30.3998C97.9232 33.2779 99.1025 36.3598 99.692 39.5183C91.531 44.0267 86.5349 50.3179 86.5349 57.5263ZM91.2827 65.2948C93.672 66.6448 96.5268 67.3834 99.4128 67.4344C108.567 67.4344 115.425 62.7987 118.031 54.8517C120.917 54.7753 123.834 54.8773 126.72 55.132C126.72 55.1575 126.689 55.1575 126.689 55.1575C121.662 64.0978 112.259 68.8353 103.012 68.8353C98.6991 68.9881 94.4787 67.7145 91.2827 65.2948ZM114.711 17.435C112.508 22.9367 113.159 28.6422 114.214 34.1693C109.901 35.1373 105.774 36.5381 101.895 38.3721C101.461 34.8572 100.282 31.4185 98.4198 28.2093C103.074 23.9047 108.598 20.2368 114.711 17.435ZM84.8593 10.456C86.9383 17.919 91.593 23.2168 95.1926 28.8205C90.0724 34.0165 86.5039 40.1296 84.8593 46.6756H85.0455V10.456H84.8593ZM91.9344 66.5684C95.3167 68.708 99.4438 69.8541 103.695 69.8541C113.811 69.8541 123.772 65.091 129.668 55.4376C134.602 56.0744 139.473 57.1186 144.128 58.5705C133.609 60.8629 122.158 71.306 107.76 71.306C101.15 71.306 95.8132 69.4975 92.3067 66.7722L91.9344 66.5684ZM83.618 54.9537C85.4799 64.1232 94.1995 72.6558 109.25 72.6558C126.627 72.6558 141.428 59.3855 151.42 59.0289C152.165 59.0035 152.165 58.7233 151.575 58.545C144.873 56.2526 137.891 54.6225 130.723 53.7056C135.067 45.6312 135.16 38.6013 139.349 33.0996C139.722 32.6157 139.66 32.4629 138.977 32.412C131.747 31.9024 124.455 32.2845 117.349 33.5581C116.138 27.3177 115.238 21.2048 118.155 14.2001C118.372 13.6653 118.248 13.4106 117.566 13.6653C109.932 16.9002 103.136 21.3067 97.4887 26.6045C92.7411 18.8104 85.8212 11.6276 83.9283 0.496867C83.8041 -0.190847 83.3697 -0.139909 83.3697 0.496867V51.2604C83.3697 55.7178 79.584 57.7809 75.9844 57.7809C72.3848 57.7809 68.5991 55.6923 68.5991 51.2604V0.522336C68.5991 -0.114439 68.1647 -0.165377 68.0406 0.522336C66.1476 11.6276 59.2279 18.8358 54.5111 26.6045C48.8636 21.2812 42.0368 16.9002 34.4343 13.6653C33.7825 13.4106 33.6274 13.6398 33.8446 14.2001C36.7925 21.2303 35.8927 27.3177 34.6515 33.5581C27.5455 32.2845 20.2532 31.9024 13.023 32.412C12.3713 32.4629 12.3093 32.6157 12.6506 33.0996C16.8398 38.6013 16.964 45.6312 21.2772 53.7056C14.1091 54.6225 7.09611 56.2526 0.424479 58.545C-0.165093 58.7488 -0.165093 59.0289 0.579644 59.0289C10.5405 59.3602 25.3732 72.6558 42.7505 72.6558C57.8314 72.6558 66.5202 64.1232 68.3819 54.9537L68.0716 55.0047C69.2817 57.2461 71.8884 58.7488 74.8674 58.9271L74.8984 58.7742C70.8024 59.1308 67.5131 61.678 67.5131 64.9382C67.5131 70.1342 73.7193 71.8154 75.55 75.7379C75.6741 75.9926 75.7362 76.2728 76.0154 76.2728C76.2947 76.2728 76.3257 76.0181 76.4809 75.7379C78.3428 71.8154 84.518 70.1342 84.518 64.9382C84.3318 61.6271 81.1356 58.9525 77.1327 58.7742L77.1637 58.9271C80.1425 58.7488 82.7491 57.2461 83.9593 55.0047L83.618 54.9537ZM34.3102 35.5194C33.4102 39.3655 32.9137 43.2879 32.8206 47.2105C32.8206 49.1972 33.0378 51.184 33.4722 53.1453C30.4312 53.0434 27.3903 53.1198 24.3493 53.3999C20.1912 45.2492 20.2222 39.5438 16.2191 34.3222C22.2701 34.1439 28.3212 34.5514 34.3102 35.5194ZM37.4131 36.0797C41.8196 36.9713 46.0398 38.3975 49.9807 40.2569C49.9807 40.4862 49.9496 40.6899 49.9496 40.9191C49.9496 47.9491 53.2079 54.7243 59.0105 59.895C52.246 56.0998 44.395 53.8074 36.234 53.2726C35.8306 51.5151 35.6445 49.7321 35.6445 47.9491C35.8617 43.9503 36.4512 40.0022 37.4131 36.0797ZM52.6804 66.5939C46.8155 66.5939 39.3992 63.2571 36.6994 55.0047C46.1639 55.5395 55.1937 58.3667 62.7034 63.1298C60.0657 65.3203 56.4661 66.5684 52.6804 66.5939ZM52.0908 41.3777C60.5932 46.1662 64.3169 52.5593 64.3169 57.8064C64.3479 59.3347 63.9756 60.8629 63.2309 62.2893C57.9866 58.163 52.0288 51.7698 52.0288 43.0587C52.0288 42.4729 52.0288 41.9126 52.0908 41.3777ZM52.3081 39.5438C52.8666 36.3598 54.0767 33.2779 55.8456 30.4252C62.2067 36.9458 66.9546 45.0454 66.9546 53.6801C66.9546 56.329 66.1788 58.9271 64.6892 61.2958C65.2167 60.0988 65.465 58.8252 65.465 57.5517C65.465 50.3179 60.4691 44.0267 52.3081 39.5438ZM48.9877 68.8353C39.7405 68.8353 30.3381 64.0978 25.3112 55.1575C25.3112 55.132 25.2801 55.132 25.2801 55.132C28.1661 54.8773 31.052 54.7753 33.9687 54.8517C36.5753 62.7987 43.4331 67.4344 52.5873 67.4344C55.5042 67.4089 58.3279 66.6703 60.7173 65.2948C57.5522 67.7145 53.301 68.9881 48.9877 68.8353ZM53.5802 28.2093C51.7183 31.4185 50.5392 34.8572 50.1048 38.3721C46.226 36.5381 42.0989 35.1373 37.7857 34.1693C38.8406 28.6168 39.4923 22.9367 37.289 17.435C43.4331 20.2623 48.9257 23.9047 53.5802 28.2093ZM66.9235 10.456V46.6756H67.1097C65.465 40.1296 61.9275 34.0165 56.7764 28.8205C60.376 23.1914 65.0306 17.919 67.1097 10.456H66.9235ZM59.6934 66.7467C56.1869 69.4721 50.8495 71.2805 44.2399 71.2805C29.8416 71.2805 18.3913 60.8374 7.87187 58.5705C12.5575 57.1186 17.3984 56.0744 22.3322 55.4376C28.2281 65.091 38.189 69.8541 48.3049 69.8541C52.5563 69.8541 56.7144 68.6825 60.0657 66.5684L59.6934 66.7467Z" fill="url(#paint0_linear_191_892)"/>
<path d="M42.7616 89.8762C42.4823 89.9016 42.3582 89.8762 42.2962 89.7233C41.9857 88.3479 40.5273 87.3546 38.8517 87.3546C37.3932 87.2017 36.0899 88.0677 35.9038 89.2393C35.9038 89.2902 35.9038 89.3668 35.8727 89.4177C35.8727 90.9459 37.4242 91.6082 39.4723 92.1431C42.4203 92.9326 44.3441 93.9261 44.3441 96.2694C44.3441 98.6127 42.11 100.268 38.262 100.268C36.8036 100.319 35.3142 100.064 33.9798 99.5805C33.6695 99.4786 33.4523 99.2749 33.3592 99.0457C33.0179 98.205 32.8317 97.3136 32.8627 96.4222C32.8627 96.2694 33.0489 96.2184 33.2661 96.193C33.4833 96.1675 33.6385 96.2184 33.6695 96.3458C34.2901 97.6956 35.5935 99.5041 38.1999 99.5041C40.248 99.5041 41.5513 98.5108 41.5513 97.1608C41.5513 96.0145 41.0548 95.0722 38.324 94.3336C35.5935 93.5948 33.3282 92.4232 33.3282 90.1563C33.3282 88.195 35.2832 86.5139 39.131 86.5139C40.186 86.5394 41.241 86.6413 42.2962 86.845C42.6685 86.9214 42.6995 86.9724 42.7926 87.1763C43.0719 87.9658 43.196 88.7808 43.196 89.596C43.165 89.7743 43.0409 89.8507 42.7616 89.8762Z" fill="url(#paint1_linear_191_892)"/>
<path d="M86.7942 96.4732C87.0114 96.4987 87.1355 96.5751 87.1045 96.677C86.9804 97.6193 86.6391 98.5618 86.1426 99.4023C86.0493 99.5551 85.8942 99.657 85.677 99.7079C84.2496 100.116 82.7602 100.319 81.2396 100.345C75.8714 100.345 71.7441 98.1289 71.7441 93.4422C71.7441 88.8828 76.1196 86.4885 81.1776 86.4885C82.8223 86.514 84.4358 86.7179 86.0183 87.0235C86.3288 87.0745 86.3598 87.1254 86.3908 87.3546C86.4219 87.915 86.4839 88.9084 86.7011 90.1055C86.7322 90.2328 86.6391 90.2837 86.3908 90.3347C86.1116 90.3602 85.9873 90.3347 85.9562 90.2073C85.5218 88.3989 83.505 87.1509 81.2707 87.3037C78.1986 87.3037 75.0955 89.0867 75.0955 93.1619C75.0955 97.3901 78.3227 99.4787 81.4568 99.4787C83.7222 99.5042 85.739 98.3071 86.4529 96.5496C86.4529 96.4732 86.577 96.4477 86.7942 96.4732Z" fill="url(#paint2_linear_191_892)"/>
<path d="M93.0293 93.468C93.1224 89.5709 97.0012 86.4635 101.749 86.54C106.372 86.5909 110.127 89.6728 110.189 93.468C110.065 97.365 106.093 100.422 101.345 100.32C96.815 100.218 93.1534 97.2121 93.0293 93.468ZM101.625 99.479C104.542 99.479 106.869 96.9065 106.869 93.468C106.869 90.2841 104.976 87.4059 101.625 87.4059C98.2734 87.4059 96.3806 90.3095 96.3806 93.468C96.3496 96.9065 98.6768 99.479 101.625 99.479Z" fill="url(#paint3_linear_191_892)"/>
<path d="M20.6045 93.4422V97.1354C20.6045 99.2495 20.3873 99.3004 19.2392 99.4277L18.7115 99.4787C18.5564 99.5043 18.5253 99.6316 18.5253 99.7845C18.5564 99.9373 18.5874 100.065 18.7425 100.039C18.7425 100.039 20.8527 99.9882 22.0008 99.9882C23.1491 99.9882 25.259 100.039 25.259 100.039C25.4142 100.039 25.4762 99.9373 25.4762 99.7845C25.5073 99.6316 25.4452 99.4787 25.2901 99.4787L24.7626 99.4277C23.6145 99.3004 23.3973 99.2495 23.3973 97.1354V89.7488C23.3973 87.6348 23.6145 87.5838 24.7626 87.4565L25.2901 87.4055C25.4452 87.3801 25.4762 87.2527 25.4762 87.0999C25.4762 86.9471 25.4142 86.8452 25.259 86.8452C25.259 86.8452 23.1491 86.8962 22.0008 86.8962C20.8527 86.8962 18.7425 86.8452 18.7425 86.8452C18.5874 86.8452 18.5253 86.9471 18.5253 87.0999C18.4943 87.2527 18.5564 87.4055 18.7115 87.4055L19.2392 87.4565C20.3873 87.5838 20.6045 87.6348 20.6045 89.7488V93.4422Z" fill="url(#paint4_linear_191_892)"/>
<path d="M62.0612 98.9183C62.3405 99.2239 62.1233 99.3767 61.813 99.4277L61.1924 99.5041C61.0373 99.5295 61.0062 99.6314 61.0373 99.8099C61.0683 99.9881 61.1304 100.09 61.2545 100.065C61.2545 100.065 63.3026 100.014 64.4196 100.014C65.5677 100.014 67.6158 100.065 67.6158 100.065C67.771 100.065 67.833 99.9881 67.8641 99.7844C67.8951 99.5806 67.802 99.4786 67.6779 99.4786C66.685 99.5041 65.7539 99.1475 65.1643 98.5108C63.6129 97.0843 60.5408 93.8496 59.2996 92.4996C59.1443 92.3722 59.1443 92.143 59.2996 92.0157L59.3307 91.9902C60.0133 91.3789 62.2474 89.5195 63.2405 88.7809C64.2335 87.9658 65.5367 87.4819 66.9332 87.38C67.0573 87.3545 67.1504 87.2272 67.1194 87.0489C67.0883 86.8961 67.0263 86.7942 66.8711 86.8197C66.8711 86.8197 65.1333 86.8706 64.2024 86.8706C63.2716 86.8706 61.5337 86.8197 61.5337 86.8197C61.3786 86.8197 61.3165 86.947 61.3165 87.0744C61.2855 87.2526 61.3476 87.3545 61.4717 87.38L62.1233 87.5328C62.2474 87.5583 62.3405 87.6092 62.3405 87.7111C62.3715 87.9403 61.844 88.4244 61.1614 89.0611C60.1995 89.9525 58.5237 91.4044 57.6239 92.1175C56.8792 92.7033 56.5689 92.8052 56.2896 92.6779C56.0724 92.6015 55.9793 92.3977 55.9793 91.7864V89.6978C55.9793 87.5837 56.1965 87.5328 57.3446 87.4054L57.8721 87.3545C58.0272 87.329 58.0583 87.2017 58.0583 87.0489C58.0272 86.8961 57.9962 86.7942 57.8411 86.7942C57.8411 86.7942 55.7311 86.8451 54.5828 86.8451C53.4347 86.8451 51.3246 86.7942 51.3246 86.7942C51.1694 86.7942 51.1074 86.8961 51.1074 87.0489C51.0763 87.2017 51.1384 87.3545 51.2935 87.3545L51.821 87.4054C52.9693 87.5328 53.1865 87.5837 53.1865 89.6978V97.0843C53.1865 99.1984 52.9693 99.2494 51.821 99.3767L51.2935 99.4277C51.1384 99.4531 51.1074 99.5805 51.1074 99.7334C51.1074 99.8863 51.1694 100.014 51.3246 99.9881C51.3246 99.9881 53.4347 99.9372 54.5828 99.9372C55.7311 99.9372 57.8411 99.9881 57.8411 99.9881C57.9962 99.9881 58.0583 99.8863 58.0583 99.7334C58.0893 99.5805 58.0272 99.4277 57.8721 99.4277L57.3446 99.3767C56.1965 99.2494 55.9793 99.1984 55.9793 97.0843V94.1298C55.9793 93.7987 56.1345 93.5949 56.3827 93.544C56.662 93.493 56.8792 93.5949 57.1584 93.8496C58.4927 95.0466 61.0062 97.7467 62.0612 98.9183Z" fill="url(#paint5_linear_191_892)"/>
<path d="M119.128 89.6215C122.2 92.2195 126.947 96.7279 130.547 100.268C130.702 100.421 130.857 100.447 131.167 100.345C131.447 100.243 131.478 100.167 131.478 99.9882C131.416 98.9948 131.385 98.0524 131.385 97.161V90.4112C131.385 88.0679 131.602 87.6093 132.75 87.4819L133.278 87.431C133.433 87.4055 133.464 87.2782 133.464 87.1254C133.464 86.9726 133.402 86.8452 133.247 86.8707C132.316 86.9216 131.416 86.9216 130.795 86.9216C130.143 86.9216 128.995 86.8962 128.064 86.8707C127.909 86.8707 127.847 86.9726 127.847 87.1254C127.816 87.2782 127.909 87.431 128.033 87.431C129.957 87.5074 130.205 87.8385 130.205 90.4112V96.626L130.392 96.4732C126.854 93.5186 123.565 90.4112 120.493 87.1254C120.338 86.9471 120.307 86.8707 120.027 86.8962C118.631 86.9471 117.235 86.9471 115.838 86.8707C115.683 86.8452 115.621 86.9726 115.621 87.1254C115.59 87.2782 115.652 87.4055 115.807 87.431C117.669 87.7366 118.197 88.1952 118.197 89.7743V96.5241C118.197 98.8674 117.979 99.326 116.831 99.4534L116.304 99.5043C116.149 99.5298 116.118 99.6571 116.118 99.8099C116.118 99.9628 116.18 100.09 116.335 100.065C117.266 100.014 118.166 100.014 118.786 100.014C119.438 100.014 120.307 100.039 121.237 100.065C121.393 100.065 121.455 99.9628 121.455 99.8099C121.486 99.6571 121.424 99.5043 121.269 99.5043L120.741 99.4534C119.593 99.326 119.376 98.8674 119.376 96.5241V89.5196L119.128 89.6215Z" fill="url(#paint6_linear_191_892)"/>
<path d="M133.306 82.8836C133.586 82.8836 133.803 82.6289 133.803 82.2214C133.803 81.8139 133.586 81.5591 133.306 81.5591H18.7094C18.4301 81.5591 18.2129 81.8139 18.2129 82.2214C18.2129 82.6289 18.4301 82.8836 18.7094 82.8836H133.306Z" fill="url(#paint7_linear_191_892)"/>
<path d="M133.306 105.324C133.586 105.324 133.803 105.069 133.803 104.661C133.803 104.254 133.586 103.999 133.306 103.999H18.7094C18.4301 103.999 18.2129 104.254 18.2129 104.661C18.2129 105.069 18.4301 105.324 18.7094 105.324H133.306Z" fill="url(#paint8_linear_191_892)"/>
<path d="M143.727 77.8281C143.758 79.3564 142.299 80.6045 140.437 80.63C138.575 80.6554 137.055 79.4582 137.024 77.9299C136.993 76.4018 138.451 75.1536 140.313 75.1282C140.344 75.1282 140.375 75.1282 140.375 75.1282C142.206 75.1282 143.727 76.3254 143.727 77.8281ZM137.831 77.8281C137.924 78.9743 139.103 79.8657 140.53 79.8148C141.927 79.7384 143.013 78.7706 142.951 77.5988C142.889 76.4782 141.772 75.6121 140.406 75.6121C138.948 75.663 137.8 76.631 137.831 77.8281ZM139.289 77.2168C139.289 76.9366 139.227 76.8093 139.01 76.7838H138.917C138.855 76.7074 138.855 76.5801 138.948 76.5546C139.475 76.5291 139.941 76.5037 140.375 76.5037C140.965 76.5037 141.678 76.6055 141.678 77.2168C141.678 77.4715 141.492 77.7007 141.213 77.8026C141.151 77.8281 141.151 77.8535 141.213 77.9556C141.368 78.2612 141.585 78.5668 141.865 78.796C141.958 78.847 142.02 78.8979 142.082 78.9234C142.144 78.9234 142.144 79.0507 142.082 79.0762C141.958 79.0762 141.834 79.1017 141.71 79.1017C141.306 79.1271 140.934 78.9489 140.748 78.6687L140.375 78.1338C140.344 78.0574 140.251 78.0065 140.158 78.0065C140.034 78.0065 140.003 78.0574 140.003 78.1084V78.414C140.003 78.7196 140.003 78.8215 140.375 78.847L140.437 78.8725C140.499 78.8979 140.499 79.0507 140.437 79.0762C140.189 79.0762 139.972 79.0507 139.661 79.0507C139.382 79.0507 139.134 79.0762 138.917 79.0762C138.855 79.0507 138.855 78.8979 138.886 78.8725L138.979 78.847C139.258 78.796 139.258 78.7451 139.258 78.414L139.289 77.2168ZM140.003 77.6243C140.003 77.7771 140.034 77.7771 140.313 77.7771C140.592 77.8026 140.81 77.6243 140.841 77.4206C140.841 77.3951 140.841 77.3696 140.841 77.3696C140.841 77.0385 140.655 76.8348 140.344 76.8348C140.034 76.8348 140.003 76.8857 140.003 76.9876V77.6243Z" fill="url(#paint9_linear_191_892)"/>
</g>
<path d="M23.5195 122.1C23.1329 121.287 22.5729 120.66 21.8395 120.22C21.1062 119.767 20.2529 119.54 19.2795 119.54C18.3062 119.54 17.4262 119.767 16.6395 120.22C15.8662 120.66 15.2529 121.3 14.7995 122.14C14.3595 122.967 14.1395 123.927 14.1395 125.02C14.1395 126.113 14.3595 127.073 14.7995 127.9C15.2529 128.727 15.8662 129.367 16.6395 129.82C17.4262 130.26 18.3062 130.48 19.2795 130.48C20.6395 130.48 21.7595 130.073 22.6395 129.26C23.5195 128.447 24.0329 127.347 24.1795 125.96H18.6195V124.48H26.1195V125.88C26.0129 127.027 25.6529 128.08 25.0395 129.04C24.4262 129.987 23.6195 130.74 22.6195 131.3C21.6195 131.847 20.5062 132.12 19.2795 132.12C17.9862 132.12 16.8062 131.82 15.7395 131.22C14.6729 130.607 13.8262 129.76 13.1995 128.68C12.5862 127.6 12.2795 126.38 12.2795 125.02C12.2795 123.66 12.5862 122.44 13.1995 121.36C13.8262 120.267 14.6729 119.42 15.7395 118.82C16.8062 118.207 17.9862 117.9 19.2795 117.9C20.7595 117.9 22.0662 118.267 23.1995 119C24.3462 119.733 25.1795 120.767 25.6995 122.1H23.5195ZM36.3659 120.84C37.1926 120.84 37.9393 121.02 38.6059 121.38C39.2726 121.727 39.7926 122.253 40.1659 122.96C40.5526 123.667 40.7459 124.527 40.7459 125.54V132H38.9459V125.8C38.9459 124.707 38.6726 123.873 38.1259 123.3C37.5793 122.713 36.8326 122.42 35.8859 122.42C34.9259 122.42 34.1593 122.72 33.5859 123.32C33.0259 123.92 32.7459 124.793 32.7459 125.94V132H30.9259V117.2H32.7459V122.6C33.1059 122.04 33.5993 121.607 34.2259 121.3C34.8659 120.993 35.5793 120.84 36.3659 120.84ZM45.4389 126.48C45.4389 125.36 45.6656 124.38 46.1189 123.54C46.5722 122.687 47.1922 122.027 47.9789 121.56C48.7789 121.093 49.6656 120.86 50.6389 120.86C51.5989 120.86 52.4322 121.067 53.1389 121.48C53.8456 121.893 54.3722 122.413 54.7189 123.04V121.04H56.5589V132H54.7189V129.96C54.3589 130.6 53.8189 131.133 53.0989 131.56C52.3922 131.973 51.5656 132.18 50.6189 132.18C49.6456 132.18 48.7656 131.94 47.9789 131.46C47.1922 130.98 46.5722 130.307 46.1189 129.44C45.6656 128.573 45.4389 127.587 45.4389 126.48ZM54.7189 126.5C54.7189 125.673 54.5522 124.953 54.2189 124.34C53.8856 123.727 53.4322 123.26 52.8589 122.94C52.2989 122.607 51.6789 122.44 50.9989 122.44C50.3189 122.44 49.6989 122.6 49.1389 122.92C48.5789 123.24 48.1322 123.707 47.7989 124.32C47.4656 124.933 47.2989 125.653 47.2989 126.48C47.2989 127.32 47.4656 128.053 47.7989 128.68C48.1322 129.293 48.5789 129.767 49.1389 130.1C49.6989 130.42 50.3189 130.58 50.9989 130.58C51.6789 130.58 52.2989 130.42 52.8589 130.1C53.4322 129.767 53.8856 129.293 54.2189 128.68C54.5522 128.053 54.7189 127.327 54.7189 126.5ZM63.3945 130.5H68.7745V132H61.3145V130.5L66.6345 122.52H61.3545V121.04H68.7345V122.52L63.3945 130.5ZM74.4761 119.26C74.1294 119.26 73.8361 119.14 73.5961 118.9C73.3561 118.66 73.2361 118.367 73.2361 118.02C73.2361 117.673 73.3561 117.38 73.5961 117.14C73.8361 116.9 74.1294 116.78 74.4761 116.78C74.8094 116.78 75.0894 116.9 75.3161 117.14C75.5561 117.38 75.6761 117.673 75.6761 118.02C75.6761 118.367 75.5561 118.66 75.3161 118.9C75.0894 119.14 74.8094 119.26 74.4761 119.26ZM75.3561 121.04V132H73.5361V121.04H75.3561ZM80.178 126.48C80.178 125.36 80.4046 124.38 80.858 123.54C81.3113 122.687 81.9313 122.027 82.718 121.56C83.518 121.093 84.4046 120.86 85.378 120.86C86.338 120.86 87.1713 121.067 87.878 121.48C88.5846 121.893 89.1113 122.413 89.458 123.04V121.04H91.298V132H89.458V129.96C89.098 130.6 88.558 131.133 87.838 131.56C87.1313 131.973 86.3046 132.18 85.358 132.18C84.3846 132.18 83.5046 131.94 82.718 131.46C81.9313 130.98 81.3113 130.307 80.858 129.44C80.4046 128.573 80.178 127.587 80.178 126.48ZM89.458 126.5C89.458 125.673 89.2913 124.953 88.958 124.34C88.6246 123.727 88.1713 123.26 87.598 122.94C87.038 122.607 86.418 122.44 85.738 122.44C85.058 122.44 84.438 122.6 83.878 122.92C83.318 123.24 82.8713 123.707 82.538 124.32C82.2046 124.933 82.038 125.653 82.038 126.48C82.038 127.32 82.2046 128.053 82.538 128.68C82.8713 129.293 83.318 129.767 83.878 130.1C84.438 130.42 85.058 130.58 85.738 130.58C86.418 130.58 87.038 130.42 87.598 130.1C88.1713 129.767 88.6246 129.293 88.958 128.68C89.2913 128.053 89.458 127.327 89.458 126.5ZM98.5936 123.08C98.9669 122.427 99.5136 121.893 100.234 121.48C100.954 121.067 101.774 120.86 102.694 120.86C103.68 120.86 104.567 121.093 105.354 121.56C106.14 122.027 106.76 122.687 107.214 123.54C107.667 124.38 107.894 125.36 107.894 126.48C107.894 127.587 107.667 128.573 107.214 129.44C106.76 130.307 106.134 130.98 105.334 131.46C104.547 131.94 103.667 132.18 102.694 132.18C101.747 132.18 100.914 131.973 100.194 131.56C99.4869 131.147 98.9536 130.62 98.5936 129.98V132H96.7736V117.2H98.5936V123.08ZM106.034 126.48C106.034 125.653 105.867 124.933 105.534 124.32C105.2 123.707 104.747 123.24 104.174 122.92C103.614 122.6 102.994 122.44 102.314 122.44C101.647 122.44 101.027 122.607 100.454 122.94C99.8936 123.26 99.4403 123.733 99.0936 124.36C98.7603 124.973 98.5936 125.687 98.5936 126.5C98.5936 127.327 98.7603 128.053 99.0936 128.68C99.4403 129.293 99.8936 129.767 100.454 130.1C101.027 130.42 101.647 130.58 102.314 130.58C102.994 130.58 103.614 130.42 104.174 130.1C104.747 129.767 105.2 129.293 105.534 128.68C105.867 128.053 106.034 127.32 106.034 126.48ZM112.009 126.48C112.009 125.36 112.236 124.38 112.689 123.54C113.143 122.687 113.763 122.027 114.549 121.56C115.349 121.093 116.236 120.86 117.209 120.86C118.169 120.86 119.003 121.067 119.709 121.48C120.416 121.893 120.943 122.413 121.289 123.04V121.04H123.129V132H121.289V129.96C120.929 130.6 120.389 131.133 119.669 131.56C118.963 131.973 118.136 132.18 117.189 132.18C116.216 132.18 115.336 131.94 114.549 131.46C113.763 130.98 113.143 130.307 112.689 129.44C112.236 128.573 112.009 127.587 112.009 126.48ZM121.289 126.5C121.289 125.673 121.123 124.953 120.789 124.34C120.456 123.727 120.003 123.26 119.429 122.94C118.869 122.607 118.249 122.44 117.569 122.44C116.889 122.44 116.269 122.6 115.709 122.92C115.149 123.24 114.703 123.707 114.369 124.32C114.036 124.933 113.869 125.653 113.869 126.48C113.869 127.32 114.036 128.053 114.369 128.68C114.703 129.293 115.149 129.767 115.709 130.1C116.269 130.42 116.889 130.58 117.569 130.58C118.249 130.58 118.869 130.42 119.429 130.1C120.003 129.767 120.456 129.293 120.789 128.68C121.123 128.053 121.289 127.327 121.289 126.5ZM127.925 126.48C127.925 125.36 128.152 124.38 128.605 123.54C129.058 122.687 129.678 122.027 130.465 121.56C131.265 121.093 132.158 120.86 133.145 120.86C133.998 120.86 134.792 121.06 135.525 121.46C136.258 121.847 136.818 122.36 137.205 123V117.2H139.045V132H137.205V129.94C136.845 130.593 136.312 131.133 135.605 131.56C134.898 131.973 134.072 132.18 133.125 132.18C132.152 132.18 131.265 131.94 130.465 131.46C129.678 130.98 129.058 130.307 128.605 129.44C128.152 128.573 127.925 127.587 127.925 126.48ZM137.205 126.5C137.205 125.673 137.038 124.953 136.705 124.34C136.372 123.727 135.918 123.26 135.345 122.94C134.785 122.607 134.165 122.44 133.485 122.44C132.805 122.44 132.185 122.6 131.625 122.92C131.065 123.24 130.618 123.707 130.285 124.32C129.952 124.933 129.785 125.653 129.785 126.48C129.785 127.32 129.952 128.053 130.285 128.68C130.618 129.293 131.065 129.767 131.625 130.1C132.185 130.42 132.805 130.58 133.485 130.58C134.165 130.58 134.785 130.42 135.345 130.1C135.918 129.767 136.372 129.293 136.705 128.68C137.038 128.053 137.205 127.327 137.205 126.5Z" fill="#F5E396"/>
<defs>
<linearGradient id="paint0_linear_191_892" x1="94.9574" y1="16.2283" x2="65.5139" y2="21.9073" gradientUnits="userSpaceOnUse">
<stop stop-color="#C5913B"/>
<stop offset="1" stop-color="#FBEEA1"/>
</linearGradient>
<linearGradient id="paint1_linear_191_892" x1="40.034" y1="89.4417" x2="37.7415" y2="89.6269" gradientUnits="userSpaceOnUse">
<stop stop-color="#C5913B"/>
<stop offset="1" stop-color="#FBEEA1"/>
</linearGradient>
<linearGradient id="paint2_linear_191_892" x1="81.3429" y1="89.4367" x2="78.2912" y2="89.7642" gradientUnits="userSpaceOnUse">
<stop stop-color="#C5913B"/>
<stop offset="1" stop-color="#FBEEA1"/>
</linearGradient>
<linearGradient id="paint3_linear_191_892" x1="103.749" y1="89.4712" x2="100.351" y2="89.8807" gradientUnits="userSpaceOnUse">
<stop stop-color="#C5913B"/>
<stop offset="1" stop-color="#FBEEA1"/>
</linearGradient>
<linearGradient id="paint4_linear_191_892" x1="22.8696" y1="89.6531" x2="21.4737" y2="89.7245" gradientUnits="userSpaceOnUse">
<stop stop-color="#C5913B"/>
<stop offset="1" stop-color="#FBEEA1"/>
</linearGradient>
<linearGradient id="paint5_linear_191_892" x1="61.5764" y1="89.6185" x2="58.2567" y2="90.0243" gradientUnits="userSpaceOnUse">
<stop stop-color="#C5913B"/>
<stop offset="1" stop-color="#FBEEA1"/>
</linearGradient>
<linearGradient id="paint6_linear_191_892" x1="126.765" y1="89.748" x2="123.236" y2="90.1983" gradientUnits="userSpaceOnUse">
<stop stop-color="#C5913B"/>
<stop offset="1" stop-color="#FBEEA1"/>
</linearGradient>
<linearGradient id="paint7_linear_191_892" x1="90.4241" y1="81.8409" x2="90.103" y2="84.5524" gradientUnits="userSpaceOnUse">
<stop stop-color="#C5913B"/>
<stop offset="1" stop-color="#FBEEA1"/>
</linearGradient>
<linearGradient id="paint8_linear_191_892" x1="90.4241" y1="104.281" x2="90.103" y2="106.992" gradientUnits="userSpaceOnUse">
<stop stop-color="#C5913B"/>
<stop offset="1" stop-color="#FBEEA1"/>
</linearGradient>
<linearGradient id="paint9_linear_191_892" x1="141.211" y1="76.2989" x2="139.883" y2="76.4555" gradientUnits="userSpaceOnUse">
<stop stop-color="#C5913B"/>
<stop offset="1" stop-color="#FBEEA1"/>
</linearGradient>
<clipPath id="clip0_191_892">
<rect width="152" height="106" fill="white"/>
</clipPath>
</defs>
</svg>
