<svg width="501" height="495" viewBox="0 0 501 495" fill="none" xmlns="http://www.w3.org/2000/svg">
<path d="M447.3 137.635C434.112 158.589 434.211 181.49 420.513 214.198C410.498 213.177 400.477 212.766 390.461 213.177C391.998 205.302 392.711 197.333 392.607 189.359C392.3 173.62 390.664 157.875 387.701 142.443C407.326 138.656 427.263 137.026 447.3 137.635ZM383.201 192.323C383.201 199.479 382.592 206.636 381.263 213.688C354.378 215.833 328.513 225.031 306.227 240.266C325.347 219.516 335.977 192.323 336.081 164.109C336.081 163.193 336.081 162.375 335.977 161.453C348.961 153.891 362.862 148.266 377.378 144.688C380.649 160.432 382.592 176.38 383.201 192.323ZM294.17 253.245C318.904 234.13 348.654 222.886 379.831 220.641C370.94 253.859 346.508 267.146 327.185 267.146C314.717 267.146 302.857 262.136 294.17 253.245ZM329.331 172.698C329.331 207.656 309.706 233.313 292.43 249.875C289.977 244.151 288.748 238.12 288.852 231.88C288.852 210.828 301.118 185.167 329.128 165.953C329.331 168.198 329.331 170.448 329.331 172.698ZM285.071 230.859C285.071 235.969 285.888 241.083 287.623 245.886C282.717 236.484 280.164 225.953 280.164 215.323C280.164 180.672 295.8 148.266 316.758 121.995C322.586 133.547 326.472 145.917 328.414 158.589C301.529 176.688 285.071 201.932 285.071 230.859ZM300.711 262.037C308.581 267.453 317.987 270.417 327.493 270.625C357.649 270.625 380.237 252.021 388.826 220.13C398.336 219.823 407.94 220.229 417.446 221.25C417.446 221.354 417.347 221.354 417.347 221.354C400.784 257.234 369.81 276.245 339.352 276.245C325.144 276.859 311.237 271.745 300.711 262.037ZM377.888 69.9688C370.633 92.047 372.774 114.943 376.253 137.125C362.045 141.01 348.446 146.635 335.67 153.995C334.237 139.885 330.352 126.089 324.222 113.208C339.555 95.9324 357.748 81.2136 377.888 69.9688ZM279.55 41.9636C286.399 71.9115 301.732 93.1719 313.586 115.662C296.722 136.516 284.967 161.047 279.55 187.318H280.164V41.9636H279.55ZM302.857 267.146C313.998 275.734 327.592 280.333 341.597 280.333C374.925 280.333 407.737 261.219 427.159 222.479C443.414 225.031 459.461 229.224 474.795 235.052C440.144 244.25 402.425 286.156 354.987 286.156C333.217 286.156 315.633 278.901 304.081 267.964L302.857 267.146ZM275.461 220.537C281.592 257.333 310.315 291.578 359.899 291.578C417.144 291.578 465.904 238.323 498.821 236.891C501.269 236.787 501.269 235.662 499.331 234.948C477.248 225.75 454.248 219.208 430.638 215.526C444.946 183.125 445.253 154.912 459.055 132.833C460.279 130.891 460.076 130.276 457.826 130.073C434.008 128.026 409.987 129.563 386.576 134.672C382.592 109.63 379.623 85.099 389.237 56.9897C389.951 54.8386 389.539 53.8178 387.295 54.8386C362.144 67.823 339.758 85.5053 321.154 106.766C305.513 75.4897 282.717 46.6615 276.482 1.99487C276.076 -0.765549 274.644 -0.562424 274.644 1.99487V205.714C274.644 223.604 262.17 231.88 250.31 231.88C238.456 231.88 225.982 223.5 225.982 205.714V2.09903C225.982 -0.458258 224.555 -0.661383 224.144 2.09903C217.909 46.6615 195.112 75.5938 179.576 106.766C160.972 85.4063 138.482 67.823 113.435 54.8386C111.289 53.8178 110.779 54.7397 111.493 56.9897C121.206 85.198 118.237 109.63 114.149 134.672C90.7425 129.563 66.7217 128.026 42.904 130.073C40.753 130.276 40.5498 130.891 41.6748 132.833C55.4717 154.912 55.8832 183.125 70.0915 215.526C46.4821 219.208 23.378 225.75 1.3988 234.948C-0.54391 235.766 -0.54391 236.891 1.90921 236.891C34.7217 238.219 83.5863 291.578 140.831 291.578C190.513 291.578 219.133 257.333 225.269 220.537L224.248 220.74C228.232 229.734 236.821 235.766 246.633 236.484L246.732 235.87C233.243 237.302 222.404 247.521 222.404 260.604C222.404 281.458 242.852 288.203 248.883 303.948C249.289 304.969 249.498 306.089 250.414 306.089C251.336 306.089 251.435 305.073 251.951 303.948C258.081 288.203 278.425 281.458 278.425 260.604C277.81 247.318 267.284 236.583 254.097 235.87L254.196 236.484C264.008 235.766 272.597 229.734 276.586 220.74L275.461 220.537ZM113.029 142.542C110.06 157.979 108.425 173.719 108.118 189.464C108.118 197.438 108.836 205.406 110.269 213.281C100.248 212.87 90.2321 213.177 80.2113 214.302C66.5134 181.589 66.6175 158.693 53.4301 137.74C73.3623 137.026 93.2946 138.656 113.029 142.542ZM123.253 144.792C137.763 148.37 151.67 154.094 164.649 161.557C164.649 162.474 164.55 163.297 164.55 164.214C164.55 192.427 175.284 219.615 194.394 240.365C172.112 225.136 146.248 215.938 119.368 213.792C118.034 206.74 117.42 199.583 117.42 192.427C118.138 176.38 120.081 160.537 123.253 144.792ZM173.545 267.25C154.222 267.25 129.795 253.859 120.899 220.74C152.076 222.886 181.826 234.234 206.56 253.349C197.873 262.136 186.013 267.146 173.545 267.25ZM171.602 166.052C199.612 185.271 211.878 210.927 211.878 231.984C211.977 238.12 210.753 244.25 208.3 249.974C191.024 233.417 171.399 207.761 171.399 172.802C171.399 170.448 171.399 168.198 171.602 166.052ZM172.315 158.693C174.154 145.917 178.144 133.547 183.972 122.099C204.925 148.266 220.565 180.776 220.565 215.422C220.565 226.057 218.013 236.484 213.102 245.99C214.842 241.182 215.659 236.073 215.659 230.964C215.659 201.932 199.201 176.688 172.315 158.693ZM161.378 276.245C130.914 276.245 99.9405 257.234 83.3832 221.354C83.3832 221.25 83.279 221.25 83.279 221.25C92.7842 220.229 102.295 219.823 111.904 220.13C120.487 252.021 143.081 270.625 173.237 270.625C182.847 270.521 192.149 267.557 200.019 262.037C189.592 271.745 175.592 276.859 161.378 276.245ZM176.508 113.208C170.373 126.089 166.487 139.885 165.06 153.995C152.279 146.635 138.685 141.01 124.477 137.125C127.951 114.844 130.097 92.047 122.842 69.9688C143.081 81.3126 161.175 95.9324 176.508 113.208ZM220.467 41.9636V187.318H221.076C215.659 161.047 204.008 136.516 187.034 115.662C198.894 93.073 214.227 71.9115 221.076 41.9636H220.467ZM196.649 267.865C185.097 278.802 167.513 286.057 145.737 286.057C98.305 286.057 60.5863 244.151 25.9353 235.052C41.3675 229.224 57.3155 225.031 73.5707 222.479C92.9926 261.219 125.805 280.333 159.128 280.333C173.133 280.333 186.831 275.63 197.873 267.146L196.649 267.865Z" fill="#B64A07"/>
<path d="M140.868 360.687C139.946 360.791 139.54 360.687 139.331 360.073C138.311 354.552 133.508 350.567 127.988 350.567C123.186 349.953 118.889 353.427 118.274 358.13C118.274 358.333 118.274 358.64 118.175 358.843C118.175 364.979 123.285 367.635 130.035 369.781C139.743 372.953 146.081 376.937 146.081 386.343C146.081 395.744 138.722 402.39 126.045 402.39C121.238 402.593 116.337 401.573 111.941 399.63C110.915 399.218 110.201 398.406 109.894 397.484C108.769 394.109 108.154 390.536 108.258 386.958C108.258 386.343 108.873 386.135 109.587 386.036C110.3 385.932 110.811 386.135 110.915 386.651C112.962 392.067 117.253 399.323 125.842 399.323C132.587 399.323 136.883 395.338 136.883 389.922C136.883 385.317 135.243 381.536 126.248 378.573C117.253 375.609 109.795 370.911 109.795 361.812C109.795 353.942 116.232 347.192 128.904 347.192C132.383 347.297 135.857 347.703 139.331 348.521C140.561 348.828 140.665 349.031 140.972 349.849C141.889 353.021 142.3 356.291 142.3 359.562C142.196 360.276 141.79 360.583 140.868 360.687Z" fill="#B64A07"/>
<path d="M285.925 387.161C286.639 387.266 287.05 387.568 286.946 387.979C286.535 391.76 285.41 395.542 283.779 398.917C283.472 399.526 282.956 399.938 282.243 400.141C277.54 401.776 272.633 402.594 267.623 402.698C249.941 402.698 236.342 393.807 236.342 374.995C236.342 356.698 250.758 347.094 267.42 347.094C272.837 347.193 278.154 348.01 283.368 349.234C284.389 349.443 284.493 349.646 284.592 350.568C284.696 352.813 284.899 356.802 285.618 361.604C285.717 362.115 285.41 362.323 284.592 362.526C283.675 362.625 283.264 362.526 283.165 362.016C281.732 354.755 275.087 349.75 267.727 350.365C257.607 350.365 247.383 357.521 247.383 373.875C247.383 390.839 258.014 399.219 268.342 399.219C275.805 399.323 282.446 394.521 284.8 387.469C284.8 387.161 285.206 387.057 285.925 387.161Z" fill="#B64A07"/>
<path d="M306.467 375.099C306.774 359.458 319.555 346.989 335.196 347.297C350.425 347.5 362.795 359.869 362.998 375.099C362.592 390.739 349.508 403.005 333.863 402.593C318.941 402.187 306.878 390.125 306.467 375.099ZM334.785 399.218C344.394 399.218 352.061 388.896 352.061 375.099C352.061 362.323 345.826 350.771 334.785 350.771C323.743 350.771 317.508 362.422 317.508 375.099C317.41 388.896 325.076 399.218 334.785 399.218Z" fill="#B64A07"/>
<path d="M67.8781 374.994V389.817C67.8781 398.302 67.1646 398.505 63.3833 399.015L61.6438 399.218C61.1333 399.323 61.0292 399.833 61.0292 400.448C61.1333 401.062 61.2375 401.573 61.7479 401.474C61.7479 401.474 68.6958 401.265 72.4771 401.265C76.2635 401.265 83.2115 401.474 83.2115 401.474C83.7219 401.474 83.9302 401.062 83.9302 400.448C84.0292 399.833 83.826 399.218 83.3156 399.218L81.5813 399.015C77.7948 398.505 77.0813 398.302 77.0813 389.817V360.177C77.0813 351.692 77.7948 351.484 81.5813 350.974L83.3156 350.771C83.826 350.672 83.9302 350.156 83.9302 349.541C83.9302 348.932 83.7219 348.521 83.2115 348.521C83.2115 348.521 76.2635 348.724 72.4771 348.724C68.6958 348.724 61.7479 348.521 61.7479 348.521C61.2375 348.521 61.0292 348.932 61.0292 349.541C60.9302 350.156 61.1333 350.771 61.6438 350.771L63.3833 350.974C67.1646 351.484 67.8781 351.692 67.8781 360.177V374.994Z" fill="#B64A07"/>
<path d="M204.451 396.974C205.367 398.198 204.654 398.812 203.633 399.015L201.586 399.323C201.076 399.427 200.977 399.833 201.076 400.552C201.18 401.265 201.383 401.677 201.789 401.573C201.789 401.573 208.539 401.369 212.216 401.369C216.003 401.369 222.747 401.573 222.747 401.573C223.258 401.573 223.466 401.265 223.565 400.448C223.669 399.63 223.362 399.218 222.951 399.218C219.68 399.323 216.617 397.896 214.675 395.338C209.56 389.614 199.44 376.63 195.352 371.213C194.841 370.703 194.841 369.781 195.352 369.271L195.456 369.166C197.701 366.718 205.06 359.255 208.336 356.291C211.607 353.021 215.899 351.078 220.497 350.672C220.909 350.567 221.216 350.057 221.112 349.338C221.013 348.724 220.805 348.317 220.294 348.422C220.294 348.422 214.57 348.625 211.503 348.625C208.435 348.625 202.711 348.422 202.711 348.422C202.201 348.422 201.997 348.932 201.997 349.442C201.893 350.156 202.096 350.567 202.508 350.672L204.654 351.281C205.06 351.385 205.367 351.588 205.367 351.994C205.471 352.916 203.737 354.859 201.487 357.416C198.315 360.994 192.8 366.817 189.831 369.682C187.378 372.031 186.357 372.437 185.435 371.927C184.721 371.625 184.414 370.807 184.414 368.354V359.968C184.414 351.484 185.128 351.281 188.914 350.771L190.649 350.567C191.159 350.463 191.263 349.953 191.263 349.338C191.159 348.724 191.06 348.317 190.55 348.317C190.55 348.317 183.596 348.521 179.815 348.521C176.034 348.521 169.081 348.317 169.081 348.317C168.57 348.317 168.367 348.724 168.367 349.338C168.263 349.953 168.466 350.567 168.982 350.567L170.716 350.771C174.497 351.281 175.216 351.484 175.216 359.968V389.614C175.216 398.099 174.497 398.302 170.716 398.812L168.982 399.015C168.466 399.119 168.367 399.63 168.367 400.244C168.367 400.859 168.57 401.369 169.081 401.265C169.081 401.265 176.034 401.062 179.815 401.062C183.596 401.062 190.55 401.265 190.55 401.265C191.06 401.265 191.263 400.859 191.263 400.244C191.362 399.63 191.159 399.015 190.649 399.015L188.914 398.812C185.128 398.302 184.414 398.099 184.414 389.614V377.755C184.414 376.427 184.925 375.609 185.742 375.406C186.664 375.203 187.378 375.609 188.3 376.63C192.695 381.437 200.977 392.271 204.451 396.974Z" fill="#B64A07"/>
<path d="M392.441 359.661C402.56 370.088 418.201 388.182 430.06 402.391C430.571 403.005 431.081 403.104 432.102 402.698C433.024 402.286 433.128 401.979 433.128 401.266C432.92 397.281 432.821 393.5 432.821 389.922V362.833C432.821 353.427 433.534 351.588 437.316 351.078L439.055 350.875C439.566 350.771 439.67 350.26 439.67 349.646C439.67 349.031 439.461 348.521 438.951 348.625C435.883 348.828 432.92 348.828 430.878 348.828C428.727 348.828 424.946 348.724 421.878 348.625C421.368 348.625 421.165 349.031 421.165 349.646C421.06 350.26 421.368 350.875 421.779 350.875C428.113 351.182 428.935 352.505 428.935 362.833V387.776L429.55 387.161C417.894 375.302 407.055 362.833 396.935 349.646C396.425 348.927 396.326 348.625 395.404 348.724C390.805 348.932 386.201 348.932 381.607 348.625C381.092 348.521 380.889 349.031 380.889 349.646C380.79 350.26 380.993 350.771 381.503 350.875C387.633 352.099 389.373 353.943 389.373 360.276V387.364C389.373 396.771 388.659 398.609 384.878 399.12L383.139 399.323C382.628 399.427 382.524 399.937 382.524 400.552C382.524 401.167 382.727 401.677 383.238 401.573C386.305 401.37 389.269 401.37 391.316 401.37C393.461 401.37 396.326 401.474 399.394 401.573C399.904 401.573 400.107 401.167 400.107 400.552C400.206 399.937 400.003 399.323 399.493 399.323L397.753 399.12C393.972 398.609 393.258 396.771 393.258 387.364V359.255L392.441 359.661Z" fill="#B64A07"/>
<path d="M439.149 332.62C440.071 332.62 440.784 331.604 440.784 329.964C440.784 328.328 440.071 327.308 439.149 327.308H61.6383C60.7165 327.308 60.0029 328.328 60.0029 329.964C60.0029 331.604 60.7165 332.62 61.6383 332.62H439.149Z" fill="#B64A07"/>
<path d="M439.149 422.677C440.071 422.677 440.784 421.656 440.784 420.021C440.784 418.385 440.071 417.359 439.149 417.359H61.6383C60.7165 417.359 60.0029 418.385 60.0029 420.021C60.0029 421.656 60.7165 422.677 61.6383 422.677H439.149Z" fill="#B64A07"/>
<path d="M473.467 312.333C473.571 318.469 468.769 323.474 462.633 323.578C456.498 323.682 451.493 318.875 451.388 312.745C451.284 306.609 456.092 301.604 462.227 301.5C462.326 301.5 462.43 301.5 462.43 301.5C468.461 301.5 473.467 306.302 473.467 312.333ZM454.045 312.333C454.352 316.932 458.237 320.51 462.94 320.307C467.539 320 471.118 316.12 470.909 311.417C470.706 306.917 467.029 303.443 462.529 303.443C457.727 303.646 453.946 307.531 454.045 312.333ZM458.852 309.88C458.852 308.755 458.649 308.245 457.93 308.146H457.623C457.42 307.839 457.42 307.323 457.727 307.224C459.461 307.12 460.998 307.021 462.43 307.021C464.368 307.021 466.722 307.427 466.722 309.88C466.722 310.901 466.107 311.823 465.19 312.234C464.982 312.333 464.982 312.438 465.19 312.849C465.701 314.073 466.414 315.297 467.336 316.219C467.638 316.422 467.847 316.63 468.05 316.729C468.253 316.729 468.253 317.24 468.05 317.344C467.638 317.344 467.232 317.443 466.826 317.443C465.498 317.547 464.269 316.833 463.654 315.708L462.43 313.563C462.326 313.255 462.019 313.052 461.711 313.052C461.305 313.052 461.201 313.255 461.201 313.458V314.688C461.201 315.911 461.201 316.323 462.43 316.422L462.633 316.526C462.836 316.63 462.836 317.24 462.633 317.344C461.815 317.344 461.097 317.24 460.076 317.24C459.159 317.24 458.342 317.344 457.623 317.344C457.42 317.24 457.42 316.63 457.519 316.526L457.826 316.422C458.748 316.219 458.748 316.016 458.748 314.688L458.852 309.88ZM461.201 311.516C461.201 312.13 461.305 312.13 462.227 312.13C463.144 312.234 463.857 311.516 463.961 310.698C463.961 310.594 463.961 310.495 463.961 310.495C463.961 309.167 463.347 308.349 462.326 308.349C461.305 308.349 461.201 308.552 461.201 308.964V311.516Z" fill="#B64A07"/>
<path d="M94.3981 479.483L80.2314 427.629H86.6064L97.4398 469.858H97.9606L108.981 427.629H116.086L127.106 469.858H127.627L138.461 427.629H144.836L130.669 479.483H124.169L112.731 438.171H112.336L100.898 479.483H94.3981Z" fill="#B64A07"/>
<path d="M163.26 480.399C160.786 480.399 158.541 479.931 156.531 479.004C154.531 478.061 152.937 476.701 151.76 474.92C150.578 473.129 149.989 470.972 149.989 468.441C149.989 466.222 150.427 464.415 151.302 463.024C152.177 461.623 153.349 460.524 154.823 459.733C156.291 458.941 157.916 458.353 159.698 457.962C161.474 457.561 163.265 457.243 165.073 457.004C167.432 456.701 169.349 456.472 170.823 456.316C172.307 456.149 173.39 455.873 174.073 455.483C174.75 455.097 175.093 454.42 175.093 453.462V453.254C175.093 450.754 174.411 448.816 173.052 447.441C171.703 446.056 169.656 445.358 166.906 445.358C164.041 445.358 161.802 445.983 160.177 447.233C158.562 448.483 157.432 449.816 156.781 451.233L151.093 449.212C152.104 446.837 153.458 444.993 155.156 443.67C156.864 442.353 158.724 441.431 160.739 440.899C162.75 440.358 164.739 440.087 166.698 440.087C167.948 440.087 169.385 440.243 171.01 440.545C172.635 440.837 174.208 441.441 175.739 442.358C177.265 443.264 178.536 444.639 179.552 446.483C180.562 448.316 181.073 450.774 181.073 453.858V479.483H175.093V474.212H174.802C174.396 475.061 173.724 475.972 172.781 476.941C171.833 477.899 170.578 478.722 169.01 479.399C167.437 480.066 165.521 480.399 163.26 480.399ZM164.156 475.024C166.531 475.024 168.531 474.561 170.156 473.629C171.781 472.701 173.01 471.504 173.843 470.045C174.677 468.576 175.093 467.024 175.093 465.399V459.941C174.843 460.248 174.286 460.524 173.427 460.774C172.578 461.014 171.599 461.222 170.489 461.399C169.39 461.582 168.323 461.733 167.281 461.858C166.25 461.983 165.416 462.087 164.781 462.17C163.224 462.368 161.771 462.691 160.427 463.149C159.093 463.597 158.015 464.264 157.198 465.149C156.375 466.024 155.968 467.228 155.968 468.754C155.968 470.826 156.739 472.389 158.281 473.441C159.823 474.498 161.781 475.024 164.156 475.024Z" fill="#B64A07"/>
<path d="M223.81 440.587L209.435 479.483H203.352L188.977 440.587H195.456L206.185 471.587H206.581L217.331 440.587H223.81Z" fill="#B64A07"/>
<path d="M247.999 480.295C244.249 480.295 241.02 479.462 238.312 477.795C235.603 476.129 233.52 473.806 232.062 470.816C230.603 467.816 229.874 464.326 229.874 460.337C229.874 456.368 230.603 452.858 232.062 449.816C233.52 446.764 235.562 444.379 238.187 442.67C240.812 440.951 243.879 440.087 247.395 440.087C249.421 440.087 251.421 440.431 253.395 441.108C255.364 441.774 257.155 442.868 258.77 444.379C260.395 445.894 261.687 447.894 262.645 450.379C263.614 452.853 264.103 455.899 264.103 459.524V462.066H235.874C236.009 466.222 237.187 469.399 239.395 471.608C241.614 473.816 244.483 474.92 247.999 474.92C250.343 474.92 252.358 474.415 254.041 473.399C255.733 472.389 256.963 470.873 257.728 468.858L263.499 470.462C262.582 473.41 260.754 475.785 258.02 477.587C255.28 479.394 251.942 480.295 247.999 480.295ZM235.874 456.899H258.02C258.02 453.608 257.051 450.879 255.124 448.712C253.207 446.545 250.629 445.462 247.395 445.462C245.114 445.462 243.134 445.998 241.457 447.066C239.791 448.123 238.478 449.524 237.52 451.274C236.562 453.014 236.009 454.889 235.874 456.899Z" fill="#B64A07"/>
<path d="M335.787 443.838H329.516C329.001 441.437 328.027 439.421 326.6 437.796C325.167 436.16 323.438 434.916 321.412 434.067C319.381 433.223 317.225 432.796 314.933 432.796C311.792 432.796 308.954 433.598 306.412 435.192C303.87 436.775 301.85 439.108 300.35 442.192C298.86 445.275 298.12 449.067 298.12 453.567C298.12 458.056 298.86 461.848 300.35 464.942C301.85 468.025 303.87 470.358 306.412 471.942C308.954 473.525 311.792 474.317 314.933 474.317C317.225 474.317 319.381 473.9 321.412 473.067C323.438 472.223 325.167 470.978 326.6 469.338C328.027 467.702 329.001 465.681 329.516 463.275H335.787C335.146 466.817 333.834 469.853 331.85 472.379C329.876 474.91 327.433 476.848 324.516 478.192C321.6 479.525 318.402 480.192 314.933 480.192C310.501 480.192 306.563 479.119 303.12 476.963C299.688 474.796 296.98 471.723 294.995 467.733C293.021 463.749 292.037 459.025 292.037 453.567C292.037 448.098 293.021 443.369 294.995 439.379C296.98 435.395 299.688 432.327 303.12 430.171C306.563 428.004 310.501 426.921 314.933 426.921C318.402 426.921 321.6 427.598 324.516 428.942C327.433 430.275 329.876 432.207 331.85 434.733C333.834 437.265 335.146 440.296 335.787 443.838Z" fill="#B64A07"/>
<path d="M345.084 479.483V440.587H351.063V479.483H345.084ZM348.126 434.108C346.959 434.108 345.959 433.712 345.126 432.92C344.293 432.129 343.876 431.181 343.876 430.066C343.876 428.957 344.293 428.004 345.126 427.212C345.959 426.42 346.959 426.024 348.126 426.024C349.293 426.024 350.293 426.42 351.126 427.212C351.959 428.004 352.376 428.957 352.376 430.066C352.376 431.181 351.959 432.129 351.126 432.92C350.293 433.712 349.293 434.108 348.126 434.108Z" fill="#B64A07"/>
<path d="M378.909 440.587V445.649H370.617V468.337C370.617 470.035 370.856 471.295 371.346 472.129C371.846 472.962 372.481 473.519 373.263 473.795C374.054 474.076 374.893 474.212 375.784 474.212C376.435 474.212 376.971 474.181 377.388 474.108C377.815 474.024 378.159 473.962 378.409 473.92L379.617 479.274C379.211 479.431 378.648 479.576 377.929 479.733C377.205 479.899 376.284 479.983 375.159 479.983C373.476 479.983 371.83 479.618 370.221 478.899C368.606 478.181 367.273 477.076 366.221 475.587C365.164 474.103 364.638 472.228 364.638 469.962V445.649H358.763V440.587H364.638V431.274H370.617V440.587H378.909Z" fill="#B64A07"/>
<path d="M391.557 494.566C390.557 494.566 389.651 494.483 388.849 494.316C388.057 494.16 387.505 494.009 387.203 493.858L388.724 488.587C390.901 489.155 392.724 489.149 394.182 488.566C395.641 487.983 396.896 486.238 397.953 483.337L399.266 479.691L384.891 440.587H391.37L402.099 471.587H402.495L413.245 440.587H419.724L403.016 485.754C400.818 491.629 397 494.566 391.557 494.566Z" fill="#B64A07"/>
</svg>
