<svg width="60" height="42" viewBox="0 0 60 42" fill="none" xmlns="http://www.w3.org/2000/svg">
<g clip-path="url(#clip0_52_153)">
<path d="M53.5978 13.5893C52.0176 15.6582 52.0299 17.9188 50.3885 21.1484C49.1882 21.0475 47.9878 21.0071 46.7874 21.0475C46.9709 20.2703 47.0566 19.4832 47.0443 18.6959C47.0076 17.1417 46.8118 15.5876 46.4566 14.0636C48.8084 13.6902 51.197 13.5287 53.5978 13.5893ZM45.9178 18.9886C45.9178 19.6951 45.8439 20.4015 45.6849 21.0979C42.4634 21.3098 39.3643 22.2182 36.6941 23.7219C38.9846 21.6731 40.2584 18.9886 40.2707 16.2032C40.2707 16.1123 40.2707 16.0316 40.2584 15.9408C41.8141 15.1939 43.4799 14.6389 45.2195 14.2856C45.6114 15.8399 45.8439 17.4143 45.9178 18.9886ZM35.2487 25.0036C38.2129 23.1164 41.7774 22.0062 45.5132 21.7842C44.4478 25.0641 41.52 26.3762 39.2051 26.3762C37.7108 26.3762 36.2899 25.8816 35.2487 25.0036ZM39.4624 17.0509C39.4624 20.5025 37.1105 23.0356 35.0405 24.6706C34.7465 24.1054 34.5995 23.5099 34.6118 22.8943C34.6118 20.8153 36.0817 18.2822 39.4378 16.3848C39.4624 16.6069 39.4624 16.8289 39.4624 17.0509ZM34.1585 22.7934C34.1585 23.298 34.2565 23.8026 34.4647 24.277C33.8768 23.3484 33.5706 22.309 33.5706 21.2594C33.5706 17.8381 35.4447 14.6389 37.9557 12.0452C38.6539 13.1856 39.1194 14.4067 39.3521 15.6582C36.1307 17.4445 34.1585 19.9373 34.1585 22.7934ZM36.0326 25.8715C36.9758 26.4064 38.1027 26.6991 39.2419 26.7193C42.8554 26.7193 45.5625 24.8825 46.5912 21.7337C47.7304 21.7034 48.8818 21.7438 50.021 21.8448C50.021 21.8549 50.0088 21.8549 50.0088 21.8549C48.0245 25.3972 44.3128 27.2744 40.6626 27.2744C38.9602 27.3349 37.2942 26.8303 36.0326 25.8715ZM45.2807 6.90821C44.411 9.08813 44.668 11.3488 45.0845 13.5388C43.382 13.9223 41.7529 14.4774 40.2217 15.204C40.0504 13.8113 39.585 12.4488 38.8499 11.1773C40.6871 9.47167 42.8676 8.01835 45.2807 6.90821ZM33.4971 4.14294C34.3177 7.09998 36.1551 9.19911 37.576 11.4194C35.5549 13.4782 34.1463 15.9004 33.4971 18.4941H33.5706V4.14294H33.4971ZM36.2899 26.3762C37.625 27.2239 39.2541 27.678 40.9322 27.678C44.9254 27.678 48.8574 25.7908 51.1847 21.9658C53.1324 22.2182 55.0551 22.6319 56.8926 23.2072C52.7404 24.1155 48.2203 28.2533 42.5368 28.2533C39.9276 28.2533 37.821 27.5367 36.4369 26.4569L36.2899 26.3762ZM33.0071 21.7741C33.7421 25.4073 37.184 28.7881 43.125 28.7881C49.9843 28.7881 55.8268 23.5301 59.771 23.3888C60.0651 23.3787 60.0651 23.2677 59.8322 23.1971C57.1867 22.2888 54.4307 21.6429 51.6012 21.2796C53.3159 18.0803 53.3526 15.2949 55.0062 13.1149C55.1534 12.9232 55.1289 12.8627 54.8593 12.8425C52.0054 12.6406 49.127 12.792 46.322 13.2966C45.8439 10.824 45.4887 8.4019 46.6401 5.62645C46.7258 5.41455 46.6768 5.31363 46.4076 5.41455C43.3942 6.69631 40.7116 8.44228 38.4824 10.5414C36.6083 7.45318 33.8768 4.60716 33.1296 0.196872C33.0806 -0.0756185 32.9091 -0.0554355 32.9091 0.196872V20.3107C32.9091 22.0769 31.4147 22.8943 29.9938 22.8943C28.5729 22.8943 27.0786 22.0668 27.0786 20.3107V0.206963C27.0786 -0.0453437 26.9071 -0.0655266 26.8581 0.206963C26.1109 4.60716 23.3794 7.46324 21.5175 10.5414C19.2883 8.43217 16.5935 6.69631 13.5925 5.41455C13.3352 5.31363 13.274 5.40445 13.3597 5.62645C14.5234 8.41201 14.1682 10.824 13.6782 13.2966C10.8732 12.792 7.99468 12.6406 5.14066 12.8425C4.88341 12.8627 4.85893 12.9232 4.99366 13.1149C6.64729 15.2949 6.69632 18.0803 8.39889 21.2796C5.56938 21.6429 2.8011 22.2888 0.167557 23.1971C-0.0651684 23.2778 -0.0651684 23.3888 0.228807 23.3888C4.16072 23.5201 10.0157 28.7881 16.8752 28.7881C22.8282 28.7881 26.258 25.4073 26.9929 21.7741L26.8704 21.7943C27.348 22.6824 28.377 23.2778 29.5529 23.3485L29.5652 23.2879C27.9483 23.4292 26.6499 24.4385 26.6499 25.7302C26.6499 27.789 29.0997 28.4552 29.8224 30.0094C29.8714 30.1103 29.8959 30.2213 30.0061 30.2213C30.1163 30.2213 30.1286 30.1204 30.1898 30.0094C30.9248 28.4552 33.3624 27.789 33.3624 25.7302C33.2889 24.4183 32.0272 23.3585 30.4471 23.2879L30.4594 23.3485C31.6352 23.2778 32.6641 22.6824 33.1418 21.7943L33.0071 21.7741ZM13.5435 14.0737C13.1882 15.5977 12.9922 17.1518 12.9555 18.706C12.9555 19.4932 13.0412 20.2805 13.2127 21.0576C12.0123 21.0172 10.812 21.0475 9.61157 21.1584C7.97021 17.9289 7.98245 15.6683 6.40228 13.5994C8.79083 13.5287 11.1794 13.6902 13.5435 14.0737ZM14.7683 14.2957C16.5077 14.649 18.1736 15.2141 19.7292 15.9508C19.7292 16.0417 19.7169 16.1224 19.7169 16.2132C19.7169 18.9987 21.0031 21.6832 23.2936 23.732C20.6234 22.2282 17.5243 21.3199 14.3029 21.108C14.1437 20.4116 14.0702 19.7052 14.0702 18.9987C14.1559 17.4143 14.3886 15.8499 14.7683 14.2957ZM20.7949 26.3863C18.4798 26.3863 15.5523 25.0641 14.4866 21.7943C18.2226 22.0062 21.787 23.1264 24.7513 25.0137C23.7101 25.8816 22.2892 26.3762 20.7949 26.3863ZM20.5622 16.3949C23.9184 18.2923 25.3883 20.8254 25.3883 22.9044C25.4005 23.51 25.2535 24.1155 24.9596 24.6807C22.8894 23.0457 20.5377 20.5126 20.5377 17.061C20.5377 16.8289 20.5377 16.6069 20.5622 16.3949ZM20.6479 15.6683C20.8684 14.4067 21.3461 13.1856 22.0443 12.0553C24.5553 14.6389 26.4294 17.8482 26.4294 21.2695C26.4294 22.319 26.1232 23.3485 25.5352 24.287C25.7434 23.8127 25.8414 23.3081 25.8414 22.8035C25.8414 19.9373 23.8694 17.4445 20.6479 15.6683ZM19.3372 27.2744C15.687 27.2744 11.9756 25.3972 9.99126 21.8549C9.99126 21.8448 9.97899 21.8448 9.97899 21.8448C11.1182 21.7438 12.2574 21.7034 13.4087 21.7337C14.4376 24.8825 17.1446 26.7193 20.7581 26.7193C21.9096 26.7092 23.0242 26.4165 23.9674 25.8715C22.718 26.8303 21.0399 27.3349 19.3372 27.2744ZM21.1501 11.1773C20.4151 12.4488 19.9497 13.8113 19.7782 15.204C18.2471 14.4774 16.618 13.9223 14.9154 13.5388C15.3318 11.3387 15.5891 9.08813 14.7193 6.90821C17.1446 8.02846 19.3128 9.47167 21.1501 11.1773ZM26.4172 4.14294V18.4941H26.4907C25.8414 15.9004 24.4451 13.4782 22.4117 11.4194C23.8326 9.18904 25.67 7.09998 26.4907 4.14294H26.4172ZM23.5632 26.4468C22.179 27.5267 20.0722 28.2432 17.4631 28.2432C11.7796 28.2432 7.25972 24.1054 3.10732 23.2072C4.95691 22.6319 6.86779 22.2182 8.81534 21.9658C11.1427 25.7908 15.0746 27.678 19.0677 27.678C20.7459 27.678 22.3873 27.2138 23.7101 26.3762L23.5632 26.4468Z" fill="#EB852C"/>
<path d="M16.88 35.6116C16.7697 35.6217 16.7207 35.6116 16.6963 35.5511C16.5737 35.0061 15.998 34.6125 15.3366 34.6125C14.7609 34.5519 14.2464 34.8951 14.1729 35.3593C14.1729 35.3795 14.1729 35.4098 14.1607 35.43C14.1607 36.0355 14.7731 36.2979 15.5816 36.5099C16.7452 36.8227 17.5046 37.2163 17.5046 38.1448C17.5046 39.0733 16.6228 39.7292 15.1038 39.7292C14.5281 39.7494 13.9402 39.6483 13.4135 39.4567C13.291 39.4164 13.2052 39.3357 13.1685 39.2448C13.0338 38.9117 12.9603 38.5585 12.9725 38.2053C12.9725 38.1448 13.046 38.1246 13.1317 38.1145C13.2175 38.1044 13.2787 38.1246 13.291 38.1751C13.536 38.7099 14.0505 39.4265 15.0793 39.4265C15.8878 39.4265 16.4022 39.0329 16.4022 38.498C16.4022 38.0438 16.2062 37.6704 15.1283 37.3778C14.0505 37.0851 13.1563 36.6208 13.1563 35.7226C13.1563 34.9455 13.928 34.2794 15.4468 34.2794C15.8633 34.2895 16.2797 34.3299 16.6963 34.4106C16.8432 34.4409 16.8555 34.4611 16.8922 34.5419C17.0025 34.8547 17.0514 35.1776 17.0514 35.5006C17.0392 35.5713 16.9902 35.6015 16.88 35.6116Z" fill="#EB852C"/>
<path d="M34.2609 38.2252C34.3466 38.2353 34.3956 38.2656 34.3834 38.306C34.3344 38.6794 34.1997 39.0528 34.0037 39.3858C33.9669 39.4464 33.9056 39.4868 33.8199 39.5069C33.2564 39.6686 32.6685 39.7491 32.0683 39.7594C29.9493 39.7594 28.3201 38.8813 28.3201 37.0243C28.3201 35.2177 30.0472 34.269 32.0438 34.269C32.693 34.2791 33.3299 34.3599 33.9546 34.481C34.0772 34.5012 34.0894 34.5214 34.1017 34.6122C34.1139 34.8343 34.1384 35.2279 34.2241 35.7022C34.2364 35.7526 34.1997 35.7728 34.1017 35.793C33.9914 35.8031 33.9424 35.793 33.9301 35.7425C33.7586 35.026 32.9625 34.5315 32.0806 34.592C30.8679 34.592 29.643 35.2985 29.643 36.9132C29.643 38.5885 30.9169 39.4161 32.154 39.4161C33.0483 39.4262 33.8444 38.9519 34.1262 38.2555C34.1262 38.2252 34.1752 38.2151 34.2609 38.2252Z" fill="#EB852C"/>
<path d="M36.7222 37.0348C36.7589 35.4907 38.29 34.2594 40.1642 34.2897C41.989 34.3099 43.4713 35.531 43.4957 37.0348C43.4468 38.5789 41.8789 39.7901 40.0047 39.7497C38.2165 39.7093 36.7712 38.5183 36.7222 37.0348ZM40.1152 39.4165C41.2667 39.4165 42.1852 38.3972 42.1852 37.0348C42.1852 35.7732 41.438 34.6328 40.1152 34.6328C38.7922 34.6328 38.0451 35.7833 38.0451 37.0348C38.0328 38.3972 38.9514 39.4165 40.1152 39.4165Z" fill="#EB852C"/>
<path d="M8.13336 37.0243V38.4876C8.13336 39.3253 8.04763 39.3455 7.59443 39.3959L7.38613 39.4161C7.3249 39.4263 7.31263 39.4767 7.31263 39.5373C7.3249 39.5978 7.33714 39.6484 7.39836 39.6381C7.39836 39.6381 8.23134 39.618 8.68453 39.618C9.13781 39.618 9.97067 39.6381 9.97067 39.6381C10.0319 39.6381 10.0564 39.5978 10.0564 39.5373C10.0687 39.4767 10.0442 39.4161 9.98294 39.4161L9.77472 39.3959C9.32152 39.3455 9.23579 39.3253 9.23579 38.4876V35.5609C9.23579 34.7233 9.32152 34.7031 9.77472 34.6526L9.98294 34.6324C10.0442 34.6223 10.0564 34.5719 10.0564 34.5113C10.0564 34.4508 10.0319 34.4104 9.97067 34.4104C9.97067 34.4104 9.13781 34.4306 8.68453 34.4306C8.23134 34.4306 7.39836 34.4104 7.39836 34.4104C7.33714 34.4104 7.31263 34.4508 7.31263 34.5113C7.30039 34.5719 7.3249 34.6324 7.38613 34.6324L7.59443 34.6526C8.04763 34.7031 8.13336 34.7233 8.13336 35.5609V37.0243Z" fill="#EB852C"/>
<path d="M24.4978 39.1941C24.6081 39.3152 24.5224 39.3758 24.3999 39.396L24.1549 39.4263C24.0937 39.4363 24.0814 39.4767 24.0937 39.5474C24.1059 39.618 24.1304 39.6584 24.1794 39.6485C24.1794 39.6485 24.9879 39.6283 25.4288 39.6283C25.882 39.6283 26.6904 39.6485 26.6904 39.6485C26.7517 39.6485 26.7762 39.618 26.7885 39.5373C26.8007 39.4566 26.7639 39.4162 26.715 39.4162C26.323 39.4263 25.9555 39.285 25.7227 39.0327C25.1104 38.4675 23.8977 37.1858 23.4077 36.6509C23.3464 36.6004 23.3464 36.5096 23.4077 36.4592L23.42 36.4491C23.6895 36.2068 24.5713 35.4701 24.9634 35.1774C25.3553 34.8545 25.8697 34.6627 26.421 34.6224C26.47 34.6123 26.5067 34.5618 26.4945 34.4912C26.4822 34.4306 26.4577 34.3903 26.3965 34.4004C26.3965 34.4004 25.7105 34.4205 25.3431 34.4205C24.9756 34.4205 24.2896 34.4004 24.2896 34.4004C24.2284 34.4004 24.2039 34.4508 24.2039 34.5013C24.1916 34.5719 24.2162 34.6123 24.2651 34.6224L24.5224 34.6829C24.5713 34.693 24.6081 34.7132 24.6081 34.7536C24.6203 34.8444 24.4121 35.0362 24.1427 35.2885C23.763 35.6417 23.1015 36.2169 22.7463 36.4995C22.4523 36.7316 22.3298 36.772 22.2196 36.7215C22.1338 36.6913 22.0971 36.6105 22.0971 36.3683V35.5407C22.0971 34.7031 22.1828 34.6829 22.636 34.6324L22.8442 34.6123C22.9055 34.6022 22.9177 34.5517 22.9177 34.4912C22.9055 34.4306 22.8932 34.3903 22.832 34.3903C22.832 34.3903 21.9991 34.4104 21.5458 34.4104C21.0926 34.4104 20.2597 34.3903 20.2597 34.3903C20.1984 34.3903 20.174 34.4306 20.174 34.4912C20.1617 34.5517 20.1862 34.6123 20.2474 34.6123L20.4557 34.6324C20.9089 34.6829 20.9947 34.7031 20.9947 35.5407V38.4675C20.9947 39.3051 20.9089 39.3253 20.4557 39.3758L20.2474 39.396C20.1862 39.406 20.174 39.4565 20.174 39.5171C20.174 39.5777 20.1984 39.6283 20.2597 39.618C20.2597 39.618 21.0926 39.5979 21.5458 39.5979C21.9991 39.5979 22.832 39.618 22.832 39.618C22.8932 39.618 22.9177 39.5777 22.9177 39.5171C22.93 39.4565 22.9055 39.396 22.8442 39.396L22.636 39.3758C22.1828 39.3253 22.0971 39.3051 22.0971 38.4675V37.2968C22.0971 37.1656 22.1584 37.0849 22.2563 37.0647C22.3666 37.0445 22.4523 37.0849 22.5625 37.1858C23.0892 37.6601 24.0814 38.7299 24.4978 39.1941Z" fill="#EB852C"/>
<path d="M47.0244 35.5105C48.237 36.5399 50.1108 38.3263 51.5319 39.729C51.593 39.7896 51.6542 39.7999 51.7766 39.7595C51.8871 39.7191 51.8994 39.689 51.8994 39.6181C51.8749 39.2245 51.8627 38.8511 51.8627 38.4979V35.8234C51.8627 34.895 51.9483 34.7133 52.4015 34.6628L52.6099 34.6426C52.6711 34.6325 52.6833 34.5821 52.6833 34.5215C52.6833 34.461 52.6588 34.4105 52.5977 34.4206C52.2302 34.4408 51.8749 34.4408 51.6298 34.4408C51.3724 34.4408 50.9192 34.4307 50.5517 34.4206C50.4905 34.4206 50.4661 34.461 50.4661 34.5215C50.4538 34.5821 50.4905 34.6426 50.5395 34.6426C51.299 34.6729 51.3969 34.8041 51.3969 35.8234V38.2859L51.4707 38.2254C50.0741 37.0547 48.7758 35.8234 47.5632 34.5215C47.502 34.4509 47.4898 34.4206 47.3792 34.4307C46.8282 34.4509 46.2771 34.4509 45.7257 34.4206C45.6645 34.4105 45.64 34.461 45.64 34.5215C45.6278 34.5821 45.6523 34.6325 45.7134 34.6426C46.4484 34.7637 46.6569 34.9454 46.6569 35.5711V38.2455C46.6569 39.174 46.5708 39.3557 46.1177 39.4062L45.9096 39.4264C45.8484 39.4365 45.8362 39.4869 45.8362 39.5475C45.8362 39.608 45.8607 39.6584 45.9219 39.6485C46.2894 39.6283 46.6446 39.6283 46.8894 39.6283C47.1467 39.6283 47.4898 39.6382 47.8569 39.6485C47.9184 39.6485 47.9429 39.608 47.9429 39.5475C47.9552 39.4869 47.9307 39.4264 47.8695 39.4264L47.6611 39.4062C47.2079 39.3557 47.1223 39.174 47.1223 38.2455V35.4702L47.0244 35.5105Z" fill="#EB852C"/>
<path d="M52.6209 32.8408C52.7315 32.8408 52.8171 32.7399 52.8171 32.5785C52.8171 32.417 52.7315 32.316 52.6209 32.316H7.38544C7.27519 32.316 7.18945 32.417 7.18945 32.5785C7.18945 32.7399 7.27519 32.8408 7.38544 32.8408H52.6209Z" fill="#EB852C"/>
<path d="M52.6209 41.7323C52.7315 41.7323 52.8171 41.6312 52.8171 41.4696C52.8171 41.3083 52.7315 41.2073 52.6209 41.2073H7.38544C7.27519 41.2073 7.18945 41.3083 7.18945 41.4696C7.18945 41.6312 7.27519 41.7323 7.38544 41.7323H52.6209Z" fill="#EB852C"/>
<path d="M56.734 30.8377C56.7462 31.4433 56.1703 31.9378 55.4353 31.9479C54.7003 31.958 54.1003 31.4836 54.0881 30.8781C54.0758 30.2726 54.6514 29.778 55.3864 29.7679C55.3986 29.7679 55.4108 29.7679 55.4108 29.7679C56.1336 29.7679 56.734 30.2423 56.734 30.8377ZM54.4066 30.8377C54.4433 31.2919 54.9087 31.6451 55.472 31.6249C56.0235 31.5946 56.4522 31.2112 56.4277 30.7469C56.4032 30.3029 55.9623 29.9597 55.4231 29.9597C54.8476 29.9798 54.3944 30.3634 54.4066 30.8377ZM54.9822 30.5955C54.9822 30.4845 54.9577 30.434 54.872 30.4239H54.8353C54.8108 30.3937 54.8108 30.3432 54.8476 30.3331C55.0556 30.323 55.2395 30.313 55.4108 30.313C55.6437 30.313 55.9252 30.3533 55.9252 30.5955C55.9252 30.6964 55.8518 30.7872 55.7416 30.8276C55.7172 30.8377 55.7172 30.8478 55.7416 30.8882C55.8028 31.0093 55.8885 31.1304 55.999 31.2212C56.0357 31.2414 56.0602 31.2616 56.0847 31.2717C56.1091 31.2717 56.1091 31.3221 56.0847 31.3322C56.0357 31.3322 55.9868 31.3424 55.9378 31.3424C55.7783 31.3524 55.6315 31.2818 55.5581 31.1708L55.4108 30.9588C55.3986 30.9286 55.3619 30.9084 55.3252 30.9084C55.2762 30.9084 55.264 30.9286 55.264 30.9488V31.0699C55.264 31.191 55.264 31.2313 55.4108 31.2414L55.4353 31.2515C55.4598 31.2616 55.4598 31.3221 55.4353 31.3322C55.3374 31.3322 55.2518 31.3221 55.129 31.3221C55.0189 31.3221 54.921 31.3322 54.8353 31.3322C54.8108 31.3221 54.8108 31.2616 54.8231 31.2515L54.8598 31.2414C54.9699 31.2212 54.9699 31.2011 54.9699 31.0699L54.9822 30.5955ZM55.264 30.757C55.264 30.8175 55.2762 30.8175 55.3864 30.8175C55.4965 30.8276 55.5826 30.757 55.5948 30.6763C55.5948 30.6662 55.5948 30.656 55.5948 30.656C55.5948 30.5249 55.5214 30.4441 55.3986 30.4441C55.2762 30.4441 55.264 30.4643 55.264 30.5047V30.757Z" fill="#EB852C"/>
</g>
<defs>
<clipPath id="clip0_52_153">
<rect width="60" height="42" fill="white"/>
</clipPath>
</defs>
</svg>
