<svg width="125" height="125" viewBox="0 0 125 125" fill="none" xmlns="http://www.w3.org/2000/svg">
<path d="M121.92 81.7693C119.974 87.7023 109.39 89.1542 105.891 93.9394C102.263 98.8979 104.056 109.342 99.1673 112.862C94.2298 116.418 84.8071 111.438 79.0104 113.311C73.2713 115.163 68.5714 124.718 62.4116 124.707C56.4657 124.697 51.7996 115.195 45.8427 113.257C39.8858 111.319 30.4871 116.248 25.6818 112.762C20.7014 109.15 22.5691 98.6751 19.0337 93.8057C15.4636 88.8897 4.90624 87.3706 3.02768 81.598C1.16603 75.8829 8.80457 68.506 8.81452 62.37C8.82446 56.4499 1.14117 49.0591 3.08636 43.1261C5.03155 37.1941 15.6147 35.7423 19.1143 30.9571C22.7421 25.9985 20.9501 15.5546 25.8379 12.034C30.7764 8.4788 40.1991 13.4571 45.9949 11.5854C51.734 9.73353 56.4338 0.178935 62.5946 0.189829C68.5396 0.199732 73.2066 9.70184 79.1635 11.6399C85.1194 13.578 94.5182 8.64814 99.3234 12.1341C104.304 15.7458 102.436 26.2214 105.971 31.0898C109.542 36.0067 120.099 37.5258 121.979 43.2974C123.839 49.0126 116.201 56.3904 116.192 62.5255C116.182 68.4466 123.864 75.8383 121.92 81.7693Z" fill="#FF9100"/>
<path d="M125.008 62.4481C125.008 68.6891 115.401 73.3406 113.565 78.9716C111.661 84.8065 116.622 94.1809 113.072 99.0384C109.487 103.945 98.9769 102.125 94.0512 105.695C89.1724 109.23 87.6836 119.765 81.8232 121.659C76.1676 123.487 68.7708 115.898 62.5036 115.898C56.2374 115.898 48.8395 123.488 43.184 121.659C37.3245 119.764 35.8338 109.23 30.9559 105.694C26.0303 102.124 15.5207 103.944 11.9357 99.0384C8.38539 94.1809 13.3458 84.8065 11.4434 78.9706C9.6066 73.3396 0 68.6891 0 62.4481C0 56.2081 9.6066 51.5566 11.4434 45.9256C13.3458 40.0896 8.38638 30.7163 11.9357 25.8588C15.5217 20.9527 26.0313 22.7729 30.9569 19.2018C35.8348 15.6674 37.3245 5.13239 43.184 3.23692C48.8395 1.40879 56.2374 8.99958 62.5036 8.99958C68.7708 8.99958 76.1676 1.40879 81.8232 3.23692C87.6836 5.13239 89.1733 15.6664 94.0512 19.2018C98.9769 22.7719 109.487 20.9527 113.072 25.8578C116.623 30.7163 111.661 40.0896 113.565 45.9256C115.401 51.5566 125.008 56.2081 125.008 62.4481Z" fill="#D80909"/>
<path d="M114.344 62.4482C114.344 67.6246 106.375 71.4819 104.852 76.1523C103.275 80.992 107.388 88.7659 104.445 92.7946C101.471 96.8638 92.7547 95.3546 88.6694 98.3156C84.6239 101.247 83.3887 109.984 78.5288 111.556C73.8388 113.072 67.7029 106.777 62.5058 106.777C57.3087 106.777 51.1728 113.072 46.4839 111.556C41.6229 109.985 40.3888 101.247 36.3422 98.3146C32.2579 95.3536 23.5404 96.8628 20.5669 92.7936C17.6233 88.765 21.7374 80.991 20.1592 76.1503C18.6367 71.4799 10.6689 67.6236 10.6689 62.4472C10.6689 57.2718 18.6367 53.4145 20.1592 48.7442C21.7374 43.9045 17.6233 36.1305 20.5669 32.1019C23.5414 28.0327 32.258 29.5419 36.3432 26.5809C40.3888 23.6485 41.6239 14.9119 46.4839 13.3403C51.1738 11.8241 57.3097 18.1196 62.5058 18.1196C67.7029 18.1196 73.8388 11.8241 78.5288 13.3403C83.3887 14.9119 84.6239 23.6485 88.6694 26.5818C92.7547 29.5419 101.472 28.0336 104.445 32.1029C107.389 36.1315 103.275 43.9055 104.852 48.7462C106.375 53.4155 114.344 57.2728 114.344 62.4482Z" fill="white"/>
<path d="M62.4575 103.296C39.8402 103.296 21.4395 84.9722 21.4395 62.4484C21.4395 39.9256 39.8402 21.6017 62.4575 21.6017C85.0757 21.6017 103.477 39.9256 103.477 62.4484C103.477 84.9722 85.0757 103.296 62.4575 103.296ZM62.4575 22.4662C40.3185 22.4662 22.3076 40.4019 22.3076 62.4484C22.3076 84.4959 40.3185 102.432 62.4575 102.432C84.5974 102.432 102.609 84.4959 102.609 62.4484C102.609 40.4019 84.5974 22.4662 62.4575 22.4662Z" fill="#FF9100"/>
<path d="M42.0221 47.8538C41.515 47.8538 41.0431 47.7703 40.6065 47.6034C40.1764 47.4301 39.8008 47.1893 39.4798 46.8812C39.1652 46.5666 38.9181 46.2039 38.7383 45.793C38.565 45.3757 38.4783 44.9199 38.4783 44.4255C38.4783 43.9312 38.565 43.4786 38.7383 43.0677C38.9181 42.6504 39.1652 42.2877 39.4798 41.9795C39.8008 41.6649 40.1764 41.4242 40.6065 41.2573C41.0367 41.0839 41.5085 40.9972 42.0221 40.9972C42.5293 40.9972 42.998 41.0839 43.4281 41.2573C43.8583 41.4242 44.2306 41.6617 44.5452 41.9699C44.8662 42.278 45.1134 42.6408 45.2867 43.0581C45.4665 43.4754 45.5563 43.9312 45.5563 44.4255C45.5563 44.9199 45.4665 45.3757 45.2867 45.793C45.1134 46.2103 44.8662 46.573 44.5452 46.8812C44.2306 47.1893 43.8583 47.4301 43.4281 47.6034C42.998 47.7703 42.5293 47.8538 42.0221 47.8538ZM42.0221 47.2182C42.4266 47.2182 42.799 47.1508 43.1392 47.016C43.4859 46.8748 43.7844 46.6789 44.0348 46.4286C44.2916 46.1718 44.4906 45.8764 44.6319 45.5426C44.7731 45.2023 44.8437 44.83 44.8437 44.4255C44.8437 44.0211 44.7731 43.6519 44.6319 43.3181C44.4906 42.9778 44.2916 42.6825 44.0348 42.4321C43.7844 42.1753 43.4859 41.9795 43.1392 41.8447C42.799 41.7034 42.4266 41.6328 42.0221 41.6328C41.6177 41.6328 41.2421 41.7034 40.8954 41.8447C40.5487 41.9795 40.247 42.1753 39.9902 42.4321C39.7398 42.6825 39.5408 42.9778 39.3931 43.3181C39.2519 43.6519 39.1813 44.0211 39.1813 44.4255C39.1813 44.8236 39.2519 45.1927 39.3931 45.533C39.5408 45.8732 39.7398 46.1718 39.9902 46.4286C40.247 46.6789 40.5487 46.8748 40.8954 47.016C41.2421 47.1508 41.6177 47.2182 42.0221 47.2182ZM47.1537 47.796V41.055H49.6767C50.2481 41.055 50.7392 41.1481 51.1501 41.3343C51.561 41.5141 51.8756 41.7773 52.0938 42.1239C52.3185 42.4642 52.4309 42.8783 52.4309 43.3662C52.4309 43.8413 52.3185 44.2522 52.0938 44.5989C51.8756 44.9391 51.561 45.2023 51.1501 45.3885C50.7392 45.5683 50.2481 45.6582 49.6767 45.6582H47.5485L47.8663 45.3307V47.796H47.1537ZM51.7568 47.796L50.0234 45.35H50.7938L52.5368 47.796H51.7568ZM47.8663 45.3885L47.5485 45.0515H49.6575C50.3316 45.0515 50.8419 44.9038 51.1886 44.6085C51.5417 44.3132 51.7183 43.8991 51.7183 43.3662C51.7183 42.8269 51.5417 42.4096 51.1886 42.1143C50.8419 41.819 50.3316 41.6713 49.6575 41.6713H47.5485L47.8663 41.3343V45.3885ZM54.1128 47.796V41.055H56.8574C57.5764 41.055 58.2056 41.1995 58.7449 41.4884C59.2906 41.7709 59.7143 42.1657 60.016 42.6729C60.3178 43.18 60.4686 43.7643 60.4686 44.4255C60.4686 45.0868 60.3178 45.671 60.016 46.1782C59.7143 46.6854 59.2906 47.0834 58.7449 47.3723C58.2056 47.6548 57.5764 47.796 56.8574 47.796H54.1128ZM54.8254 47.1797H56.8189C57.4159 47.1797 57.9327 47.0641 58.3693 46.833C58.8123 46.5955 59.1557 46.2713 59.3997 45.8604C59.6437 45.4431 59.7656 44.9648 59.7656 44.4255C59.7656 43.8798 59.6437 43.4015 59.3997 42.9907C59.1557 42.5798 58.8123 42.2588 58.3693 42.0277C57.9327 41.7901 57.4159 41.6713 56.8189 41.6713H54.8254V47.1797ZM62.7044 44.0692H66.2675V44.6759H62.7044V44.0692ZM62.7815 47.1797H66.8357V47.796H62.0689V41.055H66.6913V41.6713H62.7815V47.1797ZM68.5108 47.796V41.055H71.0339C71.6052 41.055 72.0964 41.1481 72.5073 41.3343C72.9181 41.5141 73.2327 41.7773 73.451 42.1239C73.6757 42.4642 73.788 42.8783 73.788 43.3662C73.788 43.8413 73.6757 44.2522 73.451 44.5989C73.2327 44.9391 72.9181 45.2023 72.5073 45.3885C72.0964 45.5683 71.6052 45.6582 71.0339 45.6582H68.9056L69.2234 45.3307V47.796H68.5108ZM73.1139 47.796L71.3805 45.35H72.1509L73.894 47.796H73.1139ZM69.2234 45.3885L68.9056 45.0515H71.0146C71.6887 45.0515 72.1991 44.9038 72.5458 44.6085C72.8989 44.3132 73.0754 43.8991 73.0754 43.3662C73.0754 42.8269 72.8989 42.4096 72.5458 42.1143C72.1991 41.819 71.6887 41.6713 71.0146 41.6713H68.9056L69.2234 41.3343V45.3885Z" fill="#D80909"/>
<path d="M49.1502 61.3966V52.2966H51.6722L56.3002 57.8346H55.1302V52.2966H58.1202V61.3966H55.5982L50.9702 55.8586H52.1402V61.3966H49.1502ZM64.3694 61.6046C63.6328 61.6046 62.9481 61.4876 62.3154 61.2536C61.6914 61.0196 61.1498 60.6903 60.6904 60.2656C60.2311 59.8323 59.8714 59.3253 59.6114 58.7446C59.3601 58.1639 59.2344 57.5313 59.2344 56.8466C59.2344 56.1533 59.3601 55.5206 59.6114 54.9486C59.8714 54.3679 60.2311 53.8653 60.6904 53.4406C61.1498 53.0073 61.6914 52.6736 62.3154 52.4396C62.9481 52.2056 63.6328 52.0886 64.3694 52.0886C65.1148 52.0886 65.7994 52.2056 66.4234 52.4396C67.0474 52.6736 67.5891 53.0073 68.0484 53.4406C68.5078 53.8653 68.8631 54.3679 69.1144 54.9486C69.3744 55.5206 69.5044 56.1533 69.5044 56.8466C69.5044 57.5313 69.3744 58.1639 69.1144 58.7446C68.8631 59.3253 68.5078 59.8323 68.0484 60.2656C67.5891 60.6903 67.0474 61.0196 66.4234 61.2536C65.7994 61.4876 65.1148 61.6046 64.3694 61.6046ZM64.3694 59.1216C64.6554 59.1216 64.9198 59.0696 65.1624 58.9656C65.4138 58.8616 65.6304 58.7143 65.8124 58.5236C66.0031 58.3243 66.1504 58.0859 66.2544 57.8086C66.3584 57.5226 66.4104 57.2019 66.4104 56.8466C66.4104 56.4913 66.3584 56.1749 66.2544 55.8976C66.1504 55.6116 66.0031 55.3733 65.8124 55.1826C65.6304 54.9833 65.4138 54.8316 65.1624 54.7276C64.9198 54.6236 64.6554 54.5716 64.3694 54.5716C64.0834 54.5716 63.8148 54.6236 63.5634 54.7276C63.3208 54.8316 63.1041 54.9833 62.9134 55.1826C62.7314 55.3733 62.5884 55.6116 62.4844 55.8976C62.3804 56.1749 62.3284 56.4913 62.3284 56.8466C62.3284 57.2019 62.3804 57.5226 62.4844 57.8086C62.5884 58.0859 62.7314 58.3243 62.9134 58.5236C63.1041 58.7143 63.3208 58.8616 63.5634 58.9656C63.8148 59.0696 64.0834 59.1216 64.3694 59.1216ZM72.6016 61.3966L69.6896 52.2966H72.8486L75.2016 59.9796H73.6156L76.1116 52.2966H78.9326L81.2596 59.9796H79.7386L82.1956 52.2966H85.1076L82.1956 61.3966H78.9066L77.0086 55.1046H77.8926L75.8906 61.3966H72.6016Z" fill="#D80909"/>
<path d="M77.4553 73.1918H55.3352L54.0022 67.6803H47.0264V68.8298H53.1114L57.4663 86.8348H59.9682C59.3731 87.2599 58.9835 87.9564 58.9835 88.7494C58.9835 90.0448 60.0196 91.0954 61.3 91.0954C62.5791 91.0954 63.6152 90.0448 63.6152 88.7494C63.6152 87.9577 63.2243 87.2599 62.6317 86.8348H69.5449C68.951 87.2599 68.5601 87.9564 68.5601 88.7494C68.5601 90.0448 69.5975 91.0954 70.8766 91.0954C72.1558 91.0954 73.1931 90.0448 73.1931 88.7494C73.1931 87.9577 72.8035 87.2599 72.2084 86.8348H75.0812L77.4553 73.1918ZM72.8411 74.3413H76.1022L75.6412 76.988H72.3562L72.8411 74.3413ZM66.6796 74.3413H71.6872L71.1999 76.988H66.6796V74.3413ZM66.6796 78.1362H70.9881L70.388 81.3969H66.6784L66.6796 78.1362ZM55.6121 74.3413H59.1325L59.6199 76.988H56.2535L55.6121 74.3413ZM57.3184 81.3969L56.5291 78.1362H59.8304L60.4305 81.3969H57.3184ZM57.5966 82.5464H60.6422L61.2198 85.6853H58.357L57.5966 82.5464ZM65.5446 85.6853H62.3736L61.7961 82.5464H65.5446V85.6853ZM65.5446 81.3969H61.5856L60.9855 78.1362H65.5458L65.5446 81.3969ZM65.5446 76.988H60.7738L60.2864 74.3413H65.5433L65.5446 76.988ZM66.6796 82.5464H70.1776L69.6 85.6853H66.6796V82.5464ZM74.1265 85.6853H70.7564L71.3339 82.5464H74.674L74.1265 85.6853ZM71.5444 81.3969L72.1445 78.1362H75.442L74.8732 81.3969H71.5444Z" fill="#FF9100"/>
</svg>
