<svg width="228" height="227" viewBox="0 0 228 227" fill="none" xmlns="http://www.w3.org/2000/svg">
<path d="M112.902 225.204C112.888 224.462 113.487 223.879 114.219 223.879H114.232C114.964 223.866 115.55 224.462 115.55 225.204C115.55 225.933 114.964 226.529 114.232 226.529C113.487 226.529 112.902 225.933 112.902 225.204ZM104.864 226.145C104.119 226.092 103.586 225.456 103.64 224.727C103.693 223.985 104.345 223.455 105.077 223.508C105.809 223.575 106.354 224.211 106.288 224.939C106.235 225.628 105.649 226.158 104.97 226.158C104.93 226.158 104.891 226.158 104.864 226.145ZM122.164 224.926C122.097 224.197 122.643 223.561 123.375 223.495C124.107 223.442 124.759 223.985 124.812 224.714C124.878 225.443 124.333 226.079 123.601 226.145C123.561 226.145 123.521 226.145 123.481 226.145C122.802 226.145 122.217 225.615 122.164 224.926ZM95.5488 225.006C95.5488 225.006 95.5488 225.006 95.5488 225.019C94.8302 224.9 94.3378 224.211 94.4576 223.495C94.5773 222.766 95.256 222.276 95.9879 222.395C96.7065 222.514 97.1989 223.204 97.0791 223.919C96.9727 224.568 96.4137 225.032 95.7617 225.032C95.6951 225.032 95.6286 225.019 95.5488 225.006ZM131.372 223.906C131.253 223.177 131.745 222.501 132.464 222.382C133.195 222.249 133.874 222.74 133.994 223.469C134.114 224.184 133.635 224.873 132.903 224.992C132.823 225.006 132.756 225.006 132.69 225.006C132.05 225.006 131.479 224.542 131.372 223.906ZM86.3653 223.111C85.66 222.925 85.2209 222.21 85.3939 221.507C85.5802 220.792 86.2988 220.368 87.0174 220.54C87.7227 220.726 88.1618 221.441 87.9755 222.157C87.8291 222.753 87.2835 223.151 86.6847 223.151C86.5782 223.151 86.4718 223.137 86.3653 223.111ZM140.461 222.117C140.288 221.415 140.714 220.686 141.433 220.514C142.138 220.328 142.87 220.752 143.043 221.468C143.229 222.183 142.79 222.899 142.085 223.084C141.978 223.111 141.859 223.124 141.752 223.124C141.153 223.124 140.62 222.713 140.461 222.117ZM77.3708 220.461C76.6788 220.222 76.3062 219.467 76.5457 218.778C76.7853 218.075 77.5438 217.718 78.2358 217.943V217.956C78.9278 218.181 79.3004 218.937 79.0609 219.626C78.8745 220.182 78.3556 220.527 77.8099 220.527C77.6636 220.527 77.5159 220.5 77.3708 220.461ZM149.376 219.586C149.136 218.897 149.509 218.142 150.201 217.903C150.893 217.665 151.652 218.036 151.891 218.725C152.131 219.427 151.758 220.169 151.066 220.408C150.92 220.461 150.787 220.487 150.64 220.487C150.083 220.487 149.564 220.143 149.376 219.586ZM68.6278 217.068C67.9491 216.777 67.6431 215.982 67.9491 215.319C68.2419 214.644 69.027 214.339 69.6924 214.63C70.3711 214.935 70.6772 215.717 70.3844 216.379C70.1582 216.883 69.6791 217.174 69.1601 217.174C68.9871 217.174 68.8008 217.135 68.6278 217.068ZM158.054 216.34C157.748 215.664 158.054 214.882 158.732 214.591C159.398 214.299 160.183 214.604 160.489 215.266C160.782 215.942 160.476 216.724 159.797 217.015C159.624 217.095 159.451 217.121 159.265 217.121C158.759 217.121 158.267 216.83 158.054 216.34ZM60.2042 212.961C59.5522 212.616 59.3126 211.808 59.6586 211.159C60.0046 210.523 60.8164 210.284 61.4684 210.629C62.1072 210.973 62.3467 211.781 62.0007 212.431C61.7612 212.868 61.3087 213.12 60.8297 213.12C60.6167 213.12 60.4038 213.067 60.2042 212.961ZM166.411 212.378C166.065 211.728 166.304 210.92 166.956 210.576C167.595 210.231 168.407 210.47 168.753 211.106C169.112 211.755 168.859 212.563 168.221 212.908C168.021 213.014 167.795 213.067 167.582 213.067C167.116 213.067 166.649 212.815 166.411 212.378ZM52.1399 208.177C51.5278 207.78 51.3548 206.958 51.754 206.349C52.1532 205.726 52.9783 205.554 53.5904 205.964C54.2026 206.362 54.3756 207.183 53.9763 207.793C53.7235 208.177 53.2976 208.389 52.8585 208.389C52.619 208.389 52.3661 208.323 52.1399 208.177ZM174.422 207.74C174.023 207.117 174.196 206.296 174.808 205.898C175.42 205.501 176.245 205.673 176.658 206.282C177.057 206.892 176.884 207.713 176.272 208.124C176.045 208.27 175.793 208.336 175.54 208.336C175.101 208.336 174.688 208.124 174.422 207.74ZM44.5001 202.744C43.9279 202.294 43.8214 201.459 44.2739 200.889C44.7263 200.306 45.5514 200.214 46.1369 200.651C46.7225 201.101 46.8156 201.936 46.3632 202.519C46.1103 202.85 45.7111 203.023 45.3252 203.023C45.0337 203.023 44.741 202.93 44.5001 202.744ZM182.032 202.453C181.58 201.883 181.673 201.048 182.259 200.598C182.831 200.147 183.669 200.253 184.122 200.824C184.574 201.407 184.468 202.228 183.896 202.679C183.656 202.878 183.363 202.971 183.084 202.971C182.686 202.97 182.285 202.784 182.032 202.453ZM37.3407 196.715C36.8084 196.212 36.7685 195.377 37.2609 194.847C37.7665 194.304 38.6049 194.264 39.1372 194.767H39.1505C39.6828 195.258 39.7227 196.093 39.2171 196.636C38.9642 196.914 38.6049 197.06 38.2456 197.06C37.9262 197.06 37.5936 196.941 37.3407 196.715ZM189.165 196.57C188.673 196.026 188.699 195.193 189.245 194.701C189.791 194.198 190.629 194.237 191.121 194.767C191.627 195.311 191.587 196.146 191.042 196.649C190.789 196.874 190.469 196.994 190.15 196.994C189.792 196.994 189.433 196.848 189.165 196.57ZM30.7016 190.116C30.2093 189.573 30.2359 188.738 30.7815 188.235C31.3271 187.745 32.1654 187.784 32.6578 188.313C33.1635 188.856 33.1236 189.691 32.5913 190.181C32.3251 190.42 32.0058 190.539 31.6864 190.539C31.3271 190.54 30.9665 190.395 30.7016 190.116ZM195.792 190.116C195.26 189.626 195.22 188.778 195.726 188.248V188.235C196.218 187.705 197.057 187.665 197.602 188.169C198.148 188.659 198.174 189.507 197.682 190.037C197.416 190.315 197.057 190.461 196.697 190.461C196.379 190.461 196.06 190.355 195.792 190.116ZM24.6334 183.001C24.181 182.418 24.2875 181.583 24.8597 181.132C25.4452 180.682 26.2836 180.788 26.736 181.358C27.1885 181.942 27.082 182.776 26.5098 183.226C26.2569 183.412 25.9775 183.504 25.6847 183.504C25.2842 183.504 24.8983 183.332 24.6334 183.001ZM201.875 183.147C201.303 182.696 201.197 181.861 201.649 181.278C202.101 180.708 202.94 180.602 203.512 181.052C204.098 181.502 204.191 182.337 203.752 182.907C203.485 183.251 203.086 183.423 202.687 183.423C202.407 183.425 202.113 183.332 201.875 183.147ZM19.1774 175.408C18.7649 174.785 18.9379 173.977 19.55 173.566C20.1754 173.169 21.0005 173.341 21.3997 173.951C21.799 174.56 21.626 175.382 21.0138 175.792C20.7876 175.938 20.5348 176.004 20.2819 176.004C19.8547 176.004 19.4302 175.792 19.1774 175.408ZM207.358 175.7C206.746 175.302 206.573 174.481 206.972 173.858C207.371 173.248 208.196 173.076 208.822 173.473C209.434 173.884 209.607 174.706 209.208 175.315C208.941 175.698 208.516 175.912 208.09 175.912C207.837 175.912 207.584 175.845 207.358 175.7ZM14.3601 167.391C14.0141 166.755 14.2536 165.947 14.8924 165.603C15.5445 165.245 16.3429 165.483 16.7022 166.119C17.0482 166.769 16.8087 167.577 16.1699 167.921C15.957 168.027 15.7441 168.08 15.5312 168.08C15.0508 168.08 14.5996 167.829 14.3601 167.391ZM212.2 167.829C211.562 167.471 211.322 166.676 211.668 166.027C212.027 165.377 212.826 165.139 213.478 165.497C214.117 165.841 214.356 166.649 214.01 167.299C214.01 167.299 214.01 167.299 214.01 167.285C213.771 167.736 213.305 167.988 212.839 167.988C212.628 167.988 212.401 167.935 212.2 167.829ZM10.2335 159.017C10.2335 159.017 10.2335 159.017 10.2202 159.017C9.92739 158.341 10.2335 157.559 10.9121 157.268C11.5775 156.963 12.3627 157.268 12.6687 157.944H12.6554C12.9615 158.606 12.6554 159.401 11.9767 159.693C11.8037 159.772 11.6307 159.799 11.4444 159.799C10.9401 159.799 10.4477 159.507 10.2335 159.017ZM216.38 159.587C215.715 159.282 215.409 158.5 215.702 157.838C215.994 157.162 216.78 156.857 217.458 157.149C218.124 157.44 218.43 158.235 218.137 158.898C217.924 159.401 217.432 159.693 216.913 159.693C216.74 159.693 216.552 159.653 216.38 159.587ZM6.81478 150.324C6.57525 149.635 6.93455 148.88 7.63985 148.642C8.33183 148.403 9.09035 148.761 9.32989 149.463C9.56942 150.152 9.19682 150.908 8.50483 151.146C8.35845 151.186 8.21207 151.212 8.06568 151.212C7.51875 151.212 7.00109 150.868 6.81478 150.324ZM219.852 151.014C219.16 150.775 218.788 150.02 219.027 149.331C219.267 148.642 220.025 148.271 220.717 148.509C221.422 148.748 221.782 149.503 221.542 150.192C221.356 150.749 220.837 151.093 220.291 151.093C220.146 151.093 220 151.067 219.852 151.014ZM4.12668 141.367C3.95369 140.665 4.37952 139.936 5.09813 139.764C5.80342 139.578 6.52202 140.015 6.70832 140.718C6.89463 141.433 6.45548 142.149 5.75019 142.334C5.63042 142.361 5.52396 142.374 5.4175 142.374C4.81867 142.374 4.28637 141.977 4.12668 141.367ZM222.608 142.202C221.89 142.016 221.464 141.301 221.637 140.585C221.823 139.883 222.542 139.446 223.26 139.631C223.966 139.803 224.405 140.532 224.218 141.234C224.072 141.844 223.526 142.242 222.928 142.242C222.82 142.242 222.715 142.228 222.608 142.202ZM2.19577 132.237C2.07601 131.508 2.56838 130.833 3.30029 130.7C4.01889 130.581 4.71088 131.071 4.83065 131.8C4.95041 132.515 4.45804 133.205 3.73944 133.324C3.65959 133.337 3.57975 133.337 3.51321 133.337C2.87578 133.337 2.31687 132.887 2.19577 132.237ZM224.604 133.191C223.886 133.072 223.393 132.383 223.513 131.667C223.633 130.939 224.312 130.448 225.043 130.568C225.762 130.7 226.254 131.376 226.135 132.091C226.028 132.741 225.469 133.205 224.83 133.205C224.751 133.205 224.684 133.205 224.604 133.191ZM1.03935 122.962C0.986124 122.233 1.53173 121.597 2.26364 121.531C2.99555 121.478 3.6343 122.021 3.70084 122.75C3.75407 123.478 3.20847 124.115 2.47656 124.181C2.43664 124.181 2.41002 124.181 2.3701 124.181C1.67811 124.181 1.10589 123.664 1.03935 122.962ZM225.855 124.035C225.123 123.982 224.578 123.346 224.631 122.617C224.697 121.888 225.336 121.345 226.068 121.398C226.8 121.464 227.346 122.1 227.279 122.829C227.226 123.518 226.64 124.048 225.962 124.048C225.922 124.048 225.882 124.048 225.855 124.035ZM0.653442 113.633C0.653442 112.904 1.23897 112.308 1.98419 112.308C2.71609 112.308 3.31493 112.904 3.31493 113.633C3.31493 114.362 2.71609 114.958 1.98419 114.958C1.25095 114.958 0.653442 114.362 0.653442 113.633ZM225.003 113.501C225.003 113.461 225.004 113.421 225.017 113.381C225.004 113.328 225.003 113.289 225.003 113.236C225.003 112.494 225.602 111.911 226.334 111.911C227.066 111.911 227.665 112.494 227.665 113.222C227.665 113.275 227.665 113.315 227.665 113.368C227.665 113.408 227.665 113.461 227.665 113.501C227.665 114.229 227.066 114.826 226.334 114.826C225.602 114.826 225.003 114.229 225.003 113.501ZM227.665 113.222C227.665 113.236 227.665 113.236 227.665 113.236C227.665 113.222 227.665 113.222 227.665 113.222ZM2.23703 105.736C1.50512 105.683 0.959512 105.033 1.02605 104.305C1.07928 103.576 1.71804 103.033 2.44994 103.099C3.18185 103.151 3.72746 103.788 3.67423 104.517C3.621 105.219 3.03547 105.736 2.34349 105.736C2.31687 105.736 2.27562 105.736 2.23703 105.736ZM224.604 104.119C224.551 103.39 225.097 102.754 225.829 102.688C226.56 102.622 227.199 103.165 227.266 103.894C227.319 104.636 226.787 105.272 226.041 105.325C226.015 105.338 225.975 105.338 225.935 105.338C225.243 105.338 224.671 104.808 224.604 104.119ZM3.24706 96.5662C2.52846 96.447 2.03608 95.7579 2.15585 95.0424C2.27562 94.3136 2.9543 93.8233 3.68621 93.9426C4.40481 94.0619 4.89718 94.7509 4.77742 95.4664C4.67096 96.1157 4.11204 96.5795 3.47329 96.5795C3.39477 96.5795 3.3269 96.5795 3.24706 96.5662ZM223.473 95.0689C223.34 94.3534 223.832 93.6643 224.564 93.5451C225.283 93.4258 225.975 93.9161 226.095 94.6316C226.214 95.3604 225.722 96.0362 225.003 96.1555C224.924 96.1687 224.857 96.182 224.777 96.182C224.139 96.182 223.58 95.7182 223.473 95.0689ZM5.03158 87.5027C4.31298 87.3172 3.88715 86.6017 4.06014 85.8994C4.24645 85.1839 4.96505 84.7466 5.67035 84.9321C6.38895 85.1043 6.81479 85.8331 6.64179 86.5368C6.49541 87.1463 5.9498 87.5438 5.35097 87.5438C5.24318 87.5425 5.13804 87.5292 5.03158 87.5027ZM221.569 86.1512C221.396 85.4356 221.822 84.7201 222.54 84.5346C223.246 84.3623 223.977 84.7863 224.15 85.5019C224.337 86.2041 223.911 86.933 223.192 87.1052C223.086 87.1317 222.966 87.145 222.86 87.145C222.275 87.145 221.73 86.7474 221.569 86.1512ZM7.54536 78.6247C6.85337 78.3862 6.48077 77.6309 6.7203 76.9419C6.95983 76.2396 7.71836 75.8818 8.41035 76.1071C9.10234 76.3456 9.47494 77.1009 9.2354 77.7899C9.0491 78.3465 8.53011 78.691 7.9845 78.691C7.83945 78.691 7.69307 78.6645 7.54536 78.6247ZM218.949 77.4189C218.709 76.7299 219.082 75.9746 219.774 75.7361C220.466 75.4976 221.224 75.8553 221.464 76.5444C221.703 77.2467 221.331 78.002 220.639 78.2405C220.492 78.2802 220.346 78.3067 220.2 78.3067C219.653 78.3067 219.134 77.9622 218.949 77.4189ZM10.807 69.972C10.1416 69.6805 9.82226 68.8987 10.1283 68.2229C10.4211 67.5604 11.2062 67.2556 11.8716 67.5471C12.5503 67.8386 12.8564 68.6204 12.5636 69.283C12.3374 69.7865 11.8583 70.078 11.3393 70.078C11.1663 70.078 10.9787 70.0515 10.807 69.972ZM215.595 68.9384C215.302 68.2627 215.608 67.4809 216.274 67.1894C216.952 66.8846 217.738 67.1893 218.03 67.8651C218.323 68.5277 218.017 69.3227 217.352 69.6142C217.179 69.6937 216.992 69.7202 216.819 69.7202C216.299 69.7202 215.821 69.4287 215.595 68.9384ZM14.7726 61.624C14.1339 61.2795 13.8943 60.4712 14.2403 59.8352C14.5863 59.1859 15.3981 58.9474 16.0501 59.2919C16.6889 59.6364 16.9284 60.4447 16.5824 61.094C16.3429 61.5313 15.8771 61.7831 15.4114 61.7831C15.1971 61.7831 14.9709 61.73 14.7726 61.624ZM211.55 60.7627C211.204 60.1135 211.443 59.3052 212.082 58.9606C212.734 58.6161 213.532 58.8414 213.892 59.4907C214.238 60.1267 213.998 60.935 213.359 61.2928C213.16 61.3988 212.934 61.4518 212.721 61.4518C212.254 61.4518 211.788 61.2 211.55 60.7627ZM19.4302 53.6338C18.8048 53.2363 18.6318 52.4148 19.0443 51.8052C19.4435 51.1825 20.2686 51.0235 20.8807 51.4223C21.4929 51.8198 21.6659 52.6414 21.2667 53.2509C21.0138 53.6484 20.588 53.8472 20.1488 53.8472C19.908 53.8459 19.6551 53.7796 19.4302 53.6338ZM206.839 52.9448C206.44 52.322 206.613 51.5005 207.225 51.103C207.837 50.7054 208.662 50.8777 209.061 51.4872C209.474 52.0968 209.301 52.9183 208.689 53.3158C208.462 53.4616 208.21 53.5411 207.957 53.5411C207.516 53.5411 207.104 53.3291 206.839 52.9448ZM24.7266 46.0544C24.1411 45.6039 24.0346 44.7691 24.4871 44.1993C24.9395 43.6163 25.7779 43.5103 26.3501 43.9608C26.9356 44.4113 27.0421 45.2461 26.5896 45.8292C26.3235 46.1604 25.9376 46.3327 25.5383 46.3327C25.2456 46.3327 24.9661 46.2399 24.7266 46.0544ZM201.501 45.5376C201.049 44.9546 201.142 44.1198 201.727 43.6693C202.3 43.2188 203.138 43.3248 203.59 43.8946C204.043 44.4776 203.95 45.3124 203.364 45.7629C203.125 45.9484 202.832 46.0412 202.553 46.0412C202.155 46.0412 201.769 45.8689 201.501 45.5376ZM30.6218 38.9388C30.0762 38.4353 30.0496 37.6005 30.5419 37.0572C31.0343 36.5271 31.886 36.4874 32.4183 36.9909C32.9639 37.4812 33.0038 38.316 32.4981 38.8593C32.2453 39.1375 31.886 39.2833 31.5267 39.2833C31.1927 39.2833 30.8746 39.164 30.6218 38.9388ZM195.566 38.581C195.06 38.051 195.1 37.2162 195.633 36.7127C196.178 36.2224 197.017 36.2489 197.522 36.7922C198.015 37.3222 197.975 38.1702 197.442 38.6605C197.19 38.899 196.857 39.0183 196.538 39.0183C196.178 39.0183 195.819 38.8725 195.566 38.581ZM37.0892 32.3267C36.5968 31.7834 36.6234 30.9486 37.169 30.4451C37.169 30.4451 37.169 30.4451 37.169 30.4583C37.7013 29.9548 38.553 29.9813 39.0454 30.5246C39.5511 31.0678 39.5112 31.9026 38.9789 32.3929C38.7127 32.6314 38.3933 32.7507 38.0739 32.7507C37.7146 32.7507 37.3553 32.6049 37.0892 32.3267ZM189.073 32.1544C188.528 31.6509 188.501 30.8161 188.994 30.2728C189.486 29.7428 190.324 29.703 190.87 30.1933C191.416 30.6968 191.455 31.5316 190.95 32.0749C190.697 32.3532 190.338 32.4989 189.978 32.4989C189.646 32.4989 189.326 32.3797 189.073 32.1544ZM44.0876 26.2578C43.6351 25.688 43.7283 24.8533 44.3151 24.4027C44.8874 23.9522 45.7257 24.0582 46.1782 24.628C46.6306 25.211 46.5242 26.0326 45.952 26.4963C45.7124 26.6818 45.4197 26.7746 45.1269 26.7746C44.741 26.7746 44.3418 26.6023 44.0876 26.2578ZM182.074 26.2578C181.488 25.8206 181.382 24.9858 181.834 24.4027C182.287 23.8197 183.125 23.7269 183.697 24.1642C184.283 24.6147 184.389 25.4495 183.937 26.0326C183.671 26.3638 183.285 26.5361 182.885 26.5361C182.606 26.5361 182.312 26.4566 182.074 26.2578ZM51.5544 20.7985C51.1419 20.1757 51.3148 19.3542 51.927 18.9567C52.5391 18.5591 53.3775 18.7301 53.7767 19.3396C54.1759 19.9505 54.0029 20.7707 53.3908 21.1682C53.1646 21.314 52.9117 21.3935 52.6589 21.3935C52.2317 21.3948 51.8072 21.1828 51.5544 20.7985ZM174.607 20.9708C173.995 20.5733 173.822 19.7517 174.221 19.1422C174.62 18.5194 175.445 18.3471 176.057 18.7447C176.683 19.1554 176.856 19.977 176.457 20.5865C176.191 20.9708 175.765 21.1828 175.339 21.1828C175.087 21.1828 174.833 21.1165 174.607 20.9708ZM59.4444 15.962C59.0851 15.3127 59.3246 14.5044 59.9767 14.1599C60.6154 13.8154 61.4272 14.0539 61.7732 14.6899C62.1325 15.3392 61.8929 16.1343 61.2409 16.492C61.0413 16.598 60.8283 16.651 60.6154 16.651C60.1363 16.651 59.6852 16.3993 59.4444 15.962ZM166.729 16.3065C166.09 15.962 165.851 15.1537 166.197 14.5177C166.543 13.8684 167.354 13.6299 167.993 13.9744C168.645 14.3189 168.885 15.1272 168.539 15.7765C168.299 16.2138 167.833 16.4655 167.368 16.4655C167.156 16.4655 166.929 16.4125 166.729 16.3065ZM67.7083 11.788C67.4155 11.1122 67.7216 10.3304 68.387 10.0389C69.0656 9.74741 69.8508 10.0522 70.1435 10.7147C70.4363 11.3905 70.1302 12.1723 69.4649 12.4638C69.2919 12.5433 69.1056 12.5831 68.9326 12.5831C68.4149 12.5831 67.9225 12.2783 67.7083 11.788ZM158.493 12.3048C157.828 12.0133 157.521 11.2315 157.814 10.569C158.107 9.89316 158.892 9.5884 159.558 9.87992C160.236 10.1714 160.542 10.9532 160.25 11.629C160.023 12.1193 159.544 12.4241 159.025 12.4241C158.852 12.4241 158.665 12.3843 158.493 12.3048ZM76.2929 8.31633C76.0534 7.62729 76.4127 6.872 77.118 6.63348C77.81 6.39497 78.5685 6.76599 78.808 7.45503C79.0475 8.14407 78.6749 8.89936 77.9829 9.13787C77.8366 9.19087 77.6902 9.21738 77.5438 9.21738C76.9982 9.21738 76.4792 8.87286 76.2929 8.31633ZM149.95 9.00537C149.258 8.76685 148.885 8.02481 149.124 7.32252C149.364 6.63348 150.123 6.26246 150.815 6.50098C151.507 6.73949 151.879 7.49478 151.64 8.18382C151.453 8.7271 150.934 9.08487 150.389 9.08487C150.241 9.08487 150.095 9.05837 149.95 9.00537ZM85.141 5.56018C84.9547 4.85789 85.3805 4.14235 86.0992 3.95684C86.8178 3.77133 87.5364 4.2086 87.7227 4.91089C87.8957 5.62643 87.4698 6.34197 86.7512 6.52748C86.6448 6.55398 86.5383 6.56723 86.4318 6.56723C85.833 6.56723 85.2887 6.16971 85.141 5.56018ZM141.167 6.42147C140.461 6.24921 140.022 5.53367 140.209 4.81813C140.382 4.10259 141.1 3.67857 141.819 3.85083C142.524 4.03634 142.963 4.75188 142.777 5.46742C142.63 6.0637 142.085 6.46123 141.486 6.46123C141.38 6.46123 141.273 6.44797 141.167 6.42147ZM94.1914 3.55931C94.0716 2.83052 94.5507 2.15474 95.2826 2.03548C96.0012 1.91622 96.6932 2.4065 96.813 3.12204C96.9327 3.83758 96.4404 4.52662 95.7218 4.64587C95.6419 4.65912 95.5754 4.65913 95.4955 4.65913C94.8568 4.65913 94.2979 4.2086 94.1914 3.55931ZM132.197 4.57962C131.479 4.46036 130.986 3.78458 131.106 3.05579C131.226 2.34025 131.905 1.84997 132.637 1.96923C133.355 2.08848 133.848 2.76427 133.728 3.49306C133.621 4.14235 133.062 4.60612 132.41 4.60612C132.344 4.60612 132.276 4.59287 132.197 4.57962ZM103.374 2.3005C103.307 1.57171 103.853 0.935668 104.585 0.869414C105.316 0.816411 105.955 1.35969 106.022 2.08848C106.088 2.81727 105.543 3.45331 104.797 3.51956H104.811C104.771 3.51956 104.731 3.51956 104.691 3.51956C104.012 3.51956 103.427 3.00279 103.374 2.3005ZM123.108 3.47981C122.377 3.42681 121.831 2.77752 121.884 2.04873C121.951 1.31994 122.589 0.776659 123.321 0.842912C124.053 0.895915 124.599 1.53195 124.546 2.26074C124.479 2.96303 123.907 3.47981 123.215 3.47981C123.174 3.47981 123.147 3.47981 123.108 3.47981ZM112.621 1.81022C112.621 1.06817 113.22 0.471893 113.952 0.471893C114.684 0.471893 115.282 1.06818 115.282 1.79697C115.282 2.52576 114.697 3.12204 113.952 3.12204C113.221 3.12204 112.621 2.53901 112.621 1.81022Z" fill="#3B2106"/>
</svg>
